<svg xmlns="http://www.w3.org/2000/svg" width="518" height="540"><path fill="rgba(19,86,146,1)" d="m172.44 383.13 3 3.07 1.54 1.56 3.24 3.28 1.65 1.66 3.46 3.46 3.51 3.51 7.59 7.49 3.87 3.81 8.19 7.97 4.15 4.03 8.62 8.28 13.24 12.59 2.71 2.57 5.25 4.97 2.6 2.46 5.01 4.76 2.48 2.35 4.76 4.52 2.34 2.24 4.49 4.28 2.2 2.11 4.2 4.02 2.07 1.98 3.9 3.74 1.91 1.84 3.58 3.46 1.75 1.69 3.25 3.15 1.58 1.54 2.91 2.83 1.4 1.37 2.54 2.5 1.23 1.21 2.16 2.15 1.03 1.03 1.77 1.78.84.85 1.36 1.4.63.66.94 1.01.41.45.5.61.24.43-.04.03-.28.11-.17.06-.53.15-.58.16-1.79.42-.98.22-2.39.49-4.03.78-.74.14-1.82.26-.96.13-2.2.24-1.15.12-2.53.22-1.31.11-2.81.19-2.87.2-6.32.31-3.22.14-6.68.21-3.35.09-6.59.08-3.24.03-6.05-.05-1.45-.02-2.73-.07-1.34-.04-2.44-.11-1.17-.05-2.1-.15-.99-.07-1.69-.19-4.71-.58-9.4-1.64-4.69-.89-9.29-2.24-4.63-1.19-4.22-1.29 1.14.26.67.13 1.28.23.55.07 1.03.1h.4l.74-.03.24-.06.41-.17.06-.13.05-.3-.13-.21-.03-.71.41-.29h.38l.74-.47.94-.78.67-.59 1.46-1.31.91-.84 1.92-1.79 1.1-1.05 2.31-2.21 1.28-1.24 2.63-2.56 1.42-1.39 2.88-2.85 1.52-1.51 3.08-3.08 1.58-1.59 3.71-3.74 2.26-2.29 1.03-1.05 1.99-2.02.9-.93 1.75-1.78.78-.81 1.51-1.57.68-.7 1.29-1.36.57-.61 2.08-2.27.78-.89 1.39-1.65.48-.65.82-1.19.24-.47.38-.87.07-.36.08-.71-.04-.33-.36-1.08-.52-.93-.43-.59-1-1.3-.71-.81-1.56-1.76-1.02-1.09-2.23-2.33-1.39-1.42-1.44-1.45-.8-.8-1.64-1.64-.9-.89-1.86-1.83-1.02-1-2.08-2.04-1.14-1.1-2.32-2.26-1.26-1.22-2.57-2.49-1.39-1.34-11.15-10.82-6.9-6.72-3.2-3.14-6.23-6.14-2.88-2.87-5.6-5.6-2.58-2.62-5.02-5.11-2.31-2.4-2.04-2.13m328.31 131.9-.18.1-.88.19-.52.1-1.48.15-.81.07-2.02.13-1.06.05-2.47.09-1.28.04-2.85.06-1.46.02-3.15.03-3.2.02-1.76-.02 1.32-.03 5.4-.14 2.51-.08 2.47-.09 1.15-.05 2.23-.09 1.01-.05 1.94-.1.84-.06 1.57-.1.62-.06 1.14-.11.38-.05.62-.11m-66.72-.95 4.93.49 4.55.46 2.02.21-.55-.03-2.79-.2-1.35-.09-2.4-.22-3.09-.35-6.3-.84-4.3-.76m76.28 1.95-.07.08.08-.12m.02-.35v.1l-.04-.21m-10.21-11.01 1.37 1.32 2.27 2.2 1.06 1.04 1.69 1.7.77.8 1.16 1.27.52.58.71.91.29.41.31.62.01.04-.12-.23-.42-.68-.35-.45-.8-.98-.56-.61-1.22-1.32-.79-.81-1.69-1.7-1.03-1.02-2.19-2.13-1.3-1.25-2.74-2.61-1.59-1.5 1.72 1.63m-73.72 10.42-2.96-.57-.94-.23m-14.25-3.57 4.44 1.19-.46-.11-5.52-1.44-2.05-.66m-27.33-10.16 4.29 1.82 8.65 3.51 4.44 1.56 6.55 2.19-5.13-1.64-5.21-1.78-10.06-4.08-4.97-2.14-6.85-3.43m-196.31 6.67-2.13-1.01-1.16-.62m-17.61-10.23 2.27 1.45 4.61 2.87 2.4 1.39 1.85 1.04-.33-.18-3.92-2.19-7.41-4.69-1.78-1.29m218.74 6.39-2.02-1.01-.05-.03m-2.07-1.09-2.66-1.4-2.84-1.72m-3.59-2.16-2.93-1.77-4.66-2.93-1.68-1.2M257.02 11.12l3 .03 6.17.15 3.09.1 6.09.29 3.02.15 5.73.41 2.79.22 5.07.52 1.21.14 2.24.29 3.07.47 6.55 1.11 12.8 2.91 6.35 1.58 12.41 3.83 6.14 2.03 11.98 4.74 5.93 2.48 11.52 5.62 5.7 2.93 11.04 6.5 5.46 3.36 10.54 7.37 5.2 3.79 10.01 8.22 14.39 13.28 4.43 4.4 8.28 9.19 4.04 4.66 7.52 9.68 3.66 4.9 6.73 10.14 3.26 5.12 5.94 10.58 2.86 5.34.41.88-.53-1.05-.51-.91-.98-1.72-.45-.72-.87-1.32-.4-.52-.78-.95-.36-.34-.69-.58-.33-.17-.62-.24h-.3l-1.28-.34-.65-.48-.1-.3-.3-.13-.41.04-.3.08-.67.2-.42.15-.9.34-.53.22-2.34 1.01-1.44.69-3.04 1.49-1.73.91-4.65 2.37-2.82 1.39-1.18.55-2.18 1.01-.75.31-.69.27-.25.09-.41.12h-.09l-.78.2-.71.31-.43.22-1.85 1.08-.93.69-2.74 1.77-.78.41-.31.12-.56.2h-.16l-1.05.3-1.23.47-.82.34-1.75.74-1.01.45-2.09.93-1.1.51-4.52 2.11-2.02 1-1.96.98-.82.43-1.54.82-.54.32-2.65 1.47-2.03 1.06-.82.41-2.29 1.15-.95.49-.57.3-1.21.63-.73.39-1.55.81-.92.49-1.95 1.04-1.16.62-2.44 1.31-1.44.76-3.01 1.61-1.74.94-3.16 1.5-.9.34-.35.11-.62.17h-.17l-1.01.16-.54.26-.19.2-.35.46-.11.3-.16.65-.01.39.15 1.76.35 1.13.89 2.42.73 1.44 1.02 2.18-2.39-4.26-1.35-2.08-2.43-3.69-1.18-1.78-2.13-3.15-1.04-1.52-1.92-2.72-.94-1.32-1.79-2.41-1.78-2.34-3.52-4.21-5.9-6.45-3.27-3.42-6.78-6.25-3.43-3.03-7.11-5.46-3.59-2.64-7.43-4.66-3.76-2.24-7.74-3.87-3.91-1.84-8.06-3.08-4.07-1.44-8.36-2.28-4.22-1.04-8.67-1.48-13.34-1.31-3.52-.19-7.03.04-3.52.08-6.99.55-3.49.34-6.91 1.06-3.45.59-6.82 1.54-3.39.84-6.68 2.01-3.32 1.06-6.52 2.46-3.23 1.29-6.32 2.9-3.14 1.5-6.09 3.31-3.02 1.71-5.84 3.71-2.88 1.91-5.55 4.09-2.74 2.1-5.23 4.46-2.58 2.27-4.88 4.81-2.4 2.44-4.51 5.14-2.2 2.61-4.1 5.45-1.99 2.76-3.66 5.75-4.96 8.93-1.82 3.61-3.19 7.31-1.52 3.66-1.5 4.29.4-1.28.54-1.84.2-.75.35-1.37.09-.44.11-.72-.05-.05-.4.2-.4.57-.27.49-.56 1.1-.34.72-.71 1.57-.39.94-.83 1.98-.45 1.13-.92 2.33-.5 1.28-2.04 5.4-1.08 3-2.2 6.17-1.11 3.22-2.19 6.48-1.04 3.19-2.02 6.32-.88 2.94-.87 2.89-.39 1.37-.75 2.66-.32 1.23-1.36 5.4-.9 3.88-.45 2.04-1.76 8.42-.8 4.39-1.55 8.83-.65 4.29-.63 4.26-.27 2.05-.51 4.04-.21 1.9-.3 3.15-.18 2.34-.07 1.27-.28 5.34-.09 2.99-.16 6.19-.03 3.31-.04 6.74.02 3.48.21 14.13.28 6.79.3 6.7.19 3.14.41 6.12.25 2.74 1.94 16.78 1.68 10.66 1.01 5.04 2.14 9.88 1.24 4.61 1.26 4.54.67 2.19 1.36 4.31.72 2.05 1.46 4.06.76 1.93 1.56 3.78.81 1.79 1.64 3.51.85 1.64 1.73 3.22.89 1.49 1.81 2.9.93 1.34 1.88 2.59.96 1.17 1.95 2.25 1 1 2.02 1.91 1.03.82 4.36 3.27-4.86-3.49-3.23-2.54-6.05-4.89-2.96-2.43-5.57-4.72-2.73-2.35-5.17-4.63-2.53-2.31-4.84-4.61-4.76-4.62-8.87-9.49-2.19-2.42-4.31-5-6.43-7.8-2.95-3.68-5.43-7.13-2.65-3.53-4.86-6.92-2.36-3.44-4.34-6.8-2.11-3.39L40 378.2l-1.89-3.39-3.45-6.83-1.69-3.44-3.09-6.99-1.51-3.53-2.78-7.25-3.88-11.27-.96-2.99-1.71-5.89-.82-2.94-1.44-5.83-.68-2.91-1.18-5.85-.56-2.93-.93-5.93-.44-2.99-.69-6.1-.32-3.07-.46-6.33-.21-3.21-.25-6.64-.14-10.39v-6.73l.61-13.02.41-6.45 1.43-12.49.82-6.19 2.25-12 1.23-5.95 3.1-11.56 1.66-5.73 3.95-11.16 2.08-5.53 4.81-10.81 2.52-5.36 5.69-10.48 9.54-15.42 3.22-4.79 6.69-9.08 3.38-4.45 7.07-8.42 3.59-4.13 7.48-7.8 3.8-3.83 7.94-7.22 4.03-3.54 8.44-6.67 4.28-3.26 8.97-6.15 4.55-3.02L134 44.6l15-7.99 3.28-1.63 6.68-3.03 3.37-1.48 6.84-2.75 3.44-1.33 6.99-2.45 3.51-1.19 7.11-2.15 3.57-1.04 7.21-1.85 3.62-.88 7.29-1.53 3.66-.73 7.35-1.22L234 11.9l.94-.11 2.1-.17 1.08-.08 2.35-.14 2.41-.12 5.41-.13 2.79-.05m74.18 460.26 2.11 1.55-1.81-1.28-1.06-.84m-15.78-12.61 4.78 3.97-1.66-1.31-4.08-3.41-1.77-1.55m-16.88-15.18-.9-.83-3.72-3.5-.83-.83m-6.15-6.08-1.57-1.57-.22-.23m-2.93-3.04-4.44-4.74 6.85 7.24m198.95-45.35-2.09 3.22 4.03-6.51m5.92-10.7-1.84 3.57-1.41 2.47.82-1.51 3.77-7.2m16.11-42.46-1.06 3.93-2.41 7.74-1.26 3.86-2.81 7.58-1.45 3.76-3.21 7.4-1.65 3.67-.75 1.49 1.66-3.62 4.14-9.48 1.83-4.85 3.49-9.76 1.49-4.98 2.71-9.57m-350.27 37.95-.93-1.16-.74-.97m-17.73-28.88 3.76 7.15 1.94 3.57 4.32 7.02 2.22 3.49 4.58 6.45-2.14-2.85-1.15-1.62-2.24-3.22-1.03-1.59-3.95-6.3-1.76-3.18-3.4-6.44-1.63-3.41-.6-1.43m260.25-1.19-2.21 3.97-2.26 3.97-1.23 2-2.16 3.44 2.16-3.44 1.23-2 2.27-3.98 2.2-3.97m3.69-7.96-2.15 4.65 2.16-4.66m113.87-41.19-.23 4.15-.79 8.23-.44 4.11-1.2 8.14-.65 4.06-1.61 8.03-.86 3.99-1.05 4.13 1.06-4.58 2.17-10.22.84-5.17 1.51-10.38.5-5.23.76-9.5m-112.14 37.42-1.55 3.57 1.55-3.57m-280.85-55.24-.05 3.78.33 7.57.23 3.78.91 7.54.52 3.77 1.48 7.5.82 3.75 2.05 7.44 1.1 3.71 2.62 7.37.27.73-.61-1.43-3.32-9.56-1.3-4.78-2.34-9.56-.81-4.8-1.36-9.59-.32-4.82-.38-9.65.17-4.85.13-2.09m283.58 51.13-.75 2.17.75-2.17m3.68-13.78-.13.61-3.04 11.31 3.03-11.31.16-.7m.37-2.08-.12.67.28-1.85m105.43-24.25-.03 4.18-.18 4.18.07-2.38.13-7.76m-108.09-36.48 1.05 4.5 1 4.48.41 2.18.77 4.32.29 2.06.47 4.81.2 3.87.05 2.16.06 4.47-.02 2.36v.17l.01-2.34-.07-4.48-.06-2.18-.21-3.95-.49-5.03-.29-2.17-.87-4.71-.47-2.4-1.16-5.02-1.19-4.9m108.38 27.49.19 4.2.01 1.32-.09-2.85-.27-5.48m-392.38-1.53-.06.67.07-1.14.23-1.74m390.53-14.53.16 1.53-.2-1.74M395.49 209.6l1.4 4.53 1.91 6.55-2.91-9.59-.8-2.49-.81-2.29m109.41 8.91.26 1.65-.57-3.2m-111.92-14.86.11.29-.19-.46m103.78-17.35 1 3.38-1.54-4.9m-5.8-15.59.64 1.7-.77-2m-18.9 224.63-6.98 9.8 8.61-12.33m-89.97-48.81-1.37 2.04 1.37-2.04Z"/><path fill="rgba(21,70,119,1)" d="m144.04 349.97 1.15 1.62 2.5 3.33 1.29 1.69 2.8 3.5 1.45 1.77 3.15 3.72 1.63 1.88 3.55 3.99 1.84 2.03 3.99 4.31 2.06 2.2 4.49 4.69 2.31 2.4 5.02 5.11 2.58 2.62 5.6 5.6 2.88 2.87 6.23 6.14 3.2 3.14 6.9 6.72 11.15 10.82 1.39 1.34 2.57 2.49 1.26 1.22 2.32 2.26 1.14 1.1 2.08 2.04 1.02 1 1.86 1.83.9.89 1.64 1.64.8.8 1.44 1.45 1.39 1.42 2.23 2.33 1.02 1.09 1.56 1.76.71.81 1 1.3.43.59.52.93.36 1.08.04.33-.08.71-.07.36-.38.87-.24.47-.82 1.19-.48.65-1.39 1.65-.78.89-2.08 2.27-.57.61-1.29 1.36-.68.7-1.51 1.57-.78.81-1.75 1.78-.9.93-1.99 2.02-1.03 1.05-2.26 2.29-3.71 3.74-1.58 1.59-3.08 3.08-1.52 1.51-2.88 2.85-1.42 1.39-2.63 2.56-1.28 1.24-2.31 2.21-1.1 1.05-1.92 1.79-.91.84-1.46 1.31-.67.59-.94.78-.74.47h-.38l-.41.29.03.71.13.21-.05.3-.06.13-.41.17-.24.06-.74.03h-.4l-1.03-.1-.55-.07-1.28-.23-.67-.13-1.51-.35-1.56-.38-3.63-1.11-5.45-1.77-10.73-4.26-5.32-2.24-10.22-5.05-2.51-1.31-4.85-2.73-2.4-1.39-4.61-2.87-2.27-1.45-4.32-2.98-6.11-4.59-1.03-.82-2.02-1.91-1-1-1.95-2.25-.96-1.17-1.88-2.59-.93-1.34-1.81-2.9-.89-1.49-1.73-3.22-.85-1.64-1.64-3.51-.81-1.79-1.56-3.78-.76-1.93-1.46-4.06-.72-2.05-1.36-4.31-.67-2.19-1.26-4.54-1.24-4.61-2.14-9.88-1.01-5.04-1.68-10.66-1.94-16.78-.25-2.74-.21-3.13.59 5.1.57 4.06.34 2.13 1.51 8.77.91 4.46 1.91 8.88 1.03 4.12 1.04 4.04.53 1.87 1.05 3.64.52 1.62.87 2.62.41 1.17.8 2.21.35.89.66 1.6.24.49.23.44.09.13.16.2h.05l.56-.42.77-.69.56-.53 1.24-1.17.78-.75 1.65-1.6.96-.94 2.01-1.96 1.11-1.11 2.31-2.28 1.24-1.24 2.54-2.54 1.35-1.35 2.72-2.74 1.41-1.43 5.84-5.91 3.54-3.59 1.6-1.63 3.09-3.14 1.39-1.41 2.68-2.73 1.19-1.21 2.28-2.35 1.01-1.03 1.93-1.99.83-.88 1.6-1.67.68-.72 1.29-1.38.54-.6 1.02-1.12.41-.47.77-.9.3-.37 1-1.31.24-.43.33-.75-.01-.24-.12-.43-.14-.18-.91-1.66-.56-1.46-.17-.69-.77-1.6-.97-1.56-.66-.96-1.43-1.99-.83-1.09-1.73-2.2-.93-1.1-6.23-7.85-3.9-5.35-1.33-1.99m319.92 50-.77 1.03-2.13 2.57-.49.58 7.7-10.34m4.56-6.54-1.09 1.56 2.31-3.53m6.68-11.33-2.47 4.52-.53.86 1.41-2.47 1.94-3.58m-340.94-29.32-.16-.24-.09-.15m357.24-7.56-2 5.59 2.2-6.28m-114.31 2.87-.42.62 1.29-2.05M97.17 291.47l-.65 4.29-.63 4.25-.27 2.05-.51 4.04-.21 1.9-.27 2.88-.17 2.18-.07 1.2-.26 5.11-.1 2.89-.17 5.98-.04 3.2-.05 4.37.02-3.22.03-3.31.16-6.19.09-2.99.28-5.34.07-1.27.18-2.34.3-3.15.21-1.9.51-4.04.27-2.05.63-4.26.65-4.29.99-5.63m36.37 48.84-.56-.99-1.48-2.85-.28-.55m368.1-10.9-2.84 10.01-.37 1.23.95-3.29 3.06-11.45M386.7 328.55l-.32.54.48-.84m-256.83-2.42 1.09 2.27-1.5-2.99-1.3-2.9-2.52-5.81-1.12-2.94-.65-1.76m266.9 8.8-.01.02.06-.12m113.51-21.49-.84 5.17-2.17 10.22-.33 1.43 1.22-5.85 2.19-11.5m-380.85 12.43-1.19-3.25-.63-1.97m278.16-9.65-.78 2.76-1.66 5.51-.98 2.73-.31.81 1.67-4.83 3.1-11.52M506 288.53l-.94 6.43.45-3.29.91-7.49M472.8 138.89l.1.3.65.48 1.28.34h.3l.62.24.33.17.69.58.36.34.78.95.4.52.87 1.32.45.72.98 1.72.51.91 1.09 2.15.57 1.12 1.22 2.58 2 4.39 2.24 5 3.94 10.17 1.89 5.11 3.24 10.35 1.54 5.19 2.56 10.47 1.19 5.25 1.87 10.56.85 5.29 1.18 10.61.51 5.3.51 10.62.16 5.3-.11 6.94-21.26.59-8.67.24-2.68.07-1.25.03-2.44.07-1.1.03-2.12.06-.92.02-1.74.05-.7.02-1.29.03-.45.01-.78.02H462l-.99.01-1.12-.01-.75-.01-1.65-.02-1-.01-2.1-.03-1.21-.02-2.49-.04-1.37-.02-2.81-.05-1.49-.02-6.22-.11-3.3-.06-9.6-.14-3.01-.03-1.4-.01-2.75-.01h-1.25l-2.41.01-1.06.01-2.01.02-.82.01-1.53.04-.55.02-.97.06-.25.03-3.61.47-.58 8.15-.89 8.56-.44 2.76.15-1.12.39-4.05.18-2.1.29-4.57.13-2.33.19-4.82.07-2.42.06-4.78.02-2.36-.06-4.47-.05-2.16-.2-3.87-.47-4.81-.29-2.06-.77-4.32-.41-2.18-1-4.48-1.05-4.5-2.66-9.15-1.4-4.53-3.21-8.68-.82-2.11-1.72-4.01-2.65-5.63-.73-1.44-.89-2.42-.35-1.13-.15-1.76.01-.39.16-.65.11-.3.35-.46.19-.2.54-.26 1.01-.16h.17l.62-.17.35-.11.9-.34 3.16-1.5 1.74-.94 3.01-1.61 1.44-.76 2.44-1.31 1.16-.62 1.95-1.04.92-.49 1.55-.81.73-.39 1.21-.63.57-.3.95-.49 2.29-1.15.82-.41 2.03-1.06 2.65-1.47.54-.32 1.54-.82.82-.43 1.96-.98 2.02-1 4.52-2.11 1.1-.51 2.09-.93 1.01-.45 1.75-.74.82-.34 1.23-.47 1.05-.3h.16l.56-.2.31-.12.78-.41 2.74-1.77.93-.69 1.85-1.08.43-.22.71-.31.78-.2h.09l.41-.12.25-.09.69-.27.75-.31 2.18-1.01 1.18-.55 2.82-1.39 4.65-2.37 1.73-.91 3.04-1.49 1.44-.69 2.34-1.01.53-.22.9-.34.42-.15.67-.2.3-.08.41-.04m-358.2 114.8.01-.41.16-3.03.27-3.68m.8-7.17-.51 3.74.24-1.97.81-6.03.56-2.99.29-1.44m7.77-29.21-.11.72-.09.44-.35 1.37-.2.75-.54 1.84-.98 3.1-1.63 5.01-2.54 9.92-.8 3.44.38-1.92.75-2.97.89-3.69.49-2.2.18-.89.31-1.63.07-.53.09-.85-.06-.06-.37.06-.34.35-.2.33-.45.73-.26.51-.55 1.08-.3.67-.63 1.4-.34.81-.7 1.68-.37.93-1.55 3.97-.83 2.26-1.05 2.95.94-2.75 2.2-6.17 1.08-3 2.04-5.4.5-1.28.92-2.33.45-1.13.83-1.98.39-.94.71-1.57.34-.72.56-1.1.27-.49.4-.57.4-.2m307.93 228.89.85-.76-.72.66-3.44 2.97-4.22 3.42 4.22-3.46Z"/><path fill="rgba(25,59,97,1)" d="m453 515.42-.48-.05-1.75-.19-.97-.1-2.5-.26-1.32-.14-2.93-.3-4.55-.46-4.93-.49-9.72-1.39-4.84-.77-9.49-1.94-4.72-1.04-9.24-2.47-4.58-1.3-8.96-2.99-4.44-1.56-8.65-3.51-4.29-1.82-8.31-4.01-4.11-2.06-7.95-4.51-11.48-7.3-2.39-1.63-5.14-3.77-2.61-1.95-5.48-4.3-2.76-2.21-5.69-4.72-2.85-2.4-5.75-5.02-5.74-5.06-11.09-10.5-2.69-2.62-5.12-5.16-7.13-7.54-10.4-11.37 10.61-1.17 2.96-.33 5.79-.86 2.87-.47 5.64-1.13 2.8-.61 5.48-1.41 2.72-.74 5.33-1.68 2.64-.88 5.17-1.96 2.57-1.01 5.01-2.23 2.49-1.15 4.85-2.51 2.41-1.28 4.7-2.78 2.33-1.42 4.53-3.05 2.25-1.56 4.37-3.32 2.17-1.69 4.22-3.59 2.08-1.83 4.05-3.86 2.01-1.96 3.89-4.13 1.92-2.1 3.72-4.39 1.85-2.23 3.55-4.67 5.15-7.3 1.79-2.66 3.25-5.33 1.58-2.67 2.86-5.36 1.37-2.69 2.46-5.4 1.18-2.71 2.06-5.45.98-2.73 1.66-5.51.78-2.76 1.28-5.57.59-2.8.89-5.65.89-8.56.58-8.15 3.61-.47.25-.03.97-.06.55-.02 1.53-.04.82-.01 2.01-.02 1.06-.01 2.41-.01h1.25l2.75.01 1.4.01 3.01.03 9.6.14 3.3.06 6.22.11 1.49.02 2.81.05 1.37.02 2.49.04 1.21.02 2.1.03 1 .01 1.65.02.75.01 1.12.01.99-.01h.17l.78-.02.45-.01 1.29-.03.7-.02 1.74-.05.92-.02 2.12-.06 1.1-.03 2.44-.07 1.25-.03 2.68-.07 8.67-.24 21.81-.6-.64 8.81-.46 6.46-1.51 12.53-.85 6.2-2.29 12.01-1.24 5.94-3.08 11.51-1.64 5.7-3.86 11-2.03 5.45-4.66 10.51-2.42 5.2-5.45 10.03-2.82 4.95-6.24 9.55-10.26 13.78-.81 1-1.97 2.29-1.04 1.19-2.36 2.58-2.43 2.63-5.49 5.61-2.77 2.78-5.45 5.2-1.32 1.22-2.45 2.21-3.31 2.83-4.22 3.46 22.22 23.16 1.53 1.59 3.27 3.37 1.66 1.71 3.45 3.53 3.48 3.54 7.07 7.11 1.75 1.75 3.37 3.36 1.67 1.65 3.14 3.09 1.54 1.5 2.8 2.73 3.71 3.55 1.59 1.5 2.74 2.61 1.3 1.25 2.19 2.13 1.03 1.02 1.69 1.7.79.81 1.22 1.32.56.61.8.98.35.45.42.68.16.3.08.42-.24.4-.1.06-.62.11-.38.05-1.14.11-.62.06-1.57.1-.84.06-1.94.1-1.01.05-2.23.09-1.15.05-2.47.09-2.51.08-5.4.14-2.72.06-5.41.09-2.65.04-4.85.01-1.15.01-2.11-.02-1.01-.01-1.77-.03-.84-.02-1.37-.06-.63-.04m-348.95-90.25-.52-1.62-1.05-3.64-.53-1.87-1.04-4.04-1.03-4.12-1.91-8.88-.91-4.46-1.51-8.77-.34-2.13-.57-4.06-.65-5.66-.1-.99-.17-2.23-.08-1.16-.15-2.52-.15-2.59-.21-5.87-.1-3.02-.12-6.44-.04-3.26-.03-6.65v-3.32l.08-6.51.04-3.2.17-5.98.1-2.89.26-5.11.07-1.2.17-2.18.27-2.88.21-1.9.51-4.04.27-2.05.63-4.25.65-4.29 1.55-8.83.8-4.39 1.76-8.42.44-2.05.91-3.87 1.35-5.41.65-2.44 1.49-5.17.77-2.61 1.67-5.29.84-2.64 1.73-5.13.86-2.52 1.68-4.7.83-2.26 1.55-3.97.37-.93.7-1.68.34-.81.63-1.4.3-.67.55-1.08.26-.51.45-.73.2-.33.34-.35.37-.06.06.06-.09.85-.07.53-.31 1.63-.18.89-.49 2.2-.89 3.69-.75 2.97-1.2 5.98-.56 2.99-.81 6.03-.36 3.02-.44 6.06-.16 3.03-.05 6.09.02 3.04.32 6.09.22 3.04.7 6.08.39 3.03 1.07 6.06.59 3.02 1.43 6.02.77 3 1.8 5.97.95 2.97 2.16 5.9 1.12 2.94 2.52 5.81 1.3 2.9 2.87 5.72 1.48 2.85 3.21 5.61 1.65 2.79 3.56 5.49 1.83 2.73 3.9 5.35 6.23 7.85.93 1.1 1.73 2.2.83 1.09 1.43 1.99.66.96.97 1.56.77 1.6.17.69.56 1.46.91 1.66.14.18.12.43.01.24-.33.75-.24.43-1 1.31-.3.37-.77.9-.41.47-1.02 1.12-.54.6-1.29 1.38-.68.72-1.6 1.67-.83.88-1.93 1.99-1.01 1.03-2.28 2.35-1.19 1.21-2.68 2.73-1.39 1.41-3.09 3.14-1.6 1.63-3.54 3.59-5.84 5.91-1.41 1.43-2.72 2.74-1.35 1.35-2.54 2.54-1.24 1.24-2.31 2.28-1.11 1.11-2.01 1.96-.96.94-1.65 1.6-.78.75-1.24 1.17-.56.53-.77.69-.56.42h-.05l-.16-.2-.09-.13-.23-.44-.24-.49-.66-1.6-.35-.89-.8-2.21-.41-1.17Z"/></svg>