<svg width="540" height="176" viewBox="0 0 540 176" fill="none" xmlns="http://www.w3.org/2000/svg">
<path d="M96.2967 0.80603L115.457 15.2593L19.7039 142.194L0.543945 127.741L96.2967 0.80603Z" fill="url(#paint0_linear_241_338)"/>
<path d="M173 110V134H14.0003V110H173Z" fill="url(#paint1_linear_241_338)"/>
<path d="M106 175H82.0003L82.0003 93H106L106 175Z" fill="url(#paint2_linear_241_338)"/>
<path d="M222 175H198L198 0.999998L222 1L222 175Z" fill="url(#paint3_linear_241_338)"/>
<path d="M342 175H318V0.999998L342 1L342 175Z" fill="url(#paint4_linear_241_338)"/>
<path d="M198 25V0.999998L342 1L342 25L198 25Z" fill="url(#paint5_linear_241_338)"/>
<path d="M198 175L198 151H342V175H198Z" fill="url(#paint6_linear_241_338)"/>
<path d="M462.752 1L481.912 15.4532L386.16 142.388L367 127.935L462.752 1Z" fill="url(#paint7_linear_241_338)"/>
<path d="M539.456 110.194V134.194H380.456V110.194H539.456Z" fill="url(#paint8_linear_241_338)"/>
<path d="M472.456 175.194H448.456V93.194H472.456V175.194Z" fill="url(#paint9_linear_241_338)"/>
<defs>
<linearGradient id="paint0_linear_241_338" x1="1.00049" y1="88" x2="539" y2="88" gradientUnits="userSpaceOnUse">
<stop stop-color="#333333"/>
<stop offset="1" stop-color="#05386B"/>
</linearGradient>
<linearGradient id="paint1_linear_241_338" x1="1.00049" y1="88" x2="539" y2="88" gradientUnits="userSpaceOnUse">
<stop stop-color="#333333"/>
<stop offset="1" stop-color="#05386B"/>
</linearGradient>
<linearGradient id="paint2_linear_241_338" x1="1.00049" y1="88" x2="539" y2="88" gradientUnits="userSpaceOnUse">
<stop stop-color="#333333"/>
<stop offset="1" stop-color="#05386B"/>
</linearGradient>
<linearGradient id="paint3_linear_241_338" x1="1.00049" y1="88" x2="539" y2="88" gradientUnits="userSpaceOnUse">
<stop stop-color="#333333"/>
<stop offset="1" stop-color="#05386B"/>
</linearGradient>
<linearGradient id="paint4_linear_241_338" x1="1.00049" y1="88" x2="539" y2="88" gradientUnits="userSpaceOnUse">
<stop stop-color="#333333"/>
<stop offset="1" stop-color="#05386B"/>
</linearGradient>
<linearGradient id="paint5_linear_241_338" x1="1.00049" y1="88" x2="539" y2="88" gradientUnits="userSpaceOnUse">
<stop stop-color="#333333"/>
<stop offset="1" stop-color="#05386B"/>
</linearGradient>
<linearGradient id="paint6_linear_241_338" x1="1.00049" y1="88" x2="539" y2="88" gradientUnits="userSpaceOnUse">
<stop stop-color="#333333"/>
<stop offset="1" stop-color="#05386B"/>
</linearGradient>
<linearGradient id="paint7_linear_241_338" x1="1.00049" y1="88" x2="539" y2="88" gradientUnits="userSpaceOnUse">
<stop stop-color="#333333"/>
<stop offset="1" stop-color="#05386B"/>
</linearGradient>
<linearGradient id="paint8_linear_241_338" x1="1.00049" y1="88" x2="539" y2="88" gradientUnits="userSpaceOnUse">
<stop stop-color="#333333"/>
<stop offset="1" stop-color="#05386B"/>
</linearGradient>
<linearGradient id="paint9_linear_241_338" x1="1.00049" y1="88" x2="539" y2="88" gradientUnits="userSpaceOnUse">
<stop stop-color="#333333"/>
<stop offset="1" stop-color="#05386B"/>
</linearGradient>
</defs>
</svg>
