<svg width="266" height="35" viewBox="0 0 266 35" fill="none"
    xmlns="http://www.w3.org/2000/svg">
    <path d="M50.4441 8.54987L43.0291 25.6496H46.2236L47.5605 22.4395H53.0013L54.2838 25.6496H58.0302L50.6151 8.54987H50.4441ZM48.6953 19.7191L50.3586 15.7162L51.9132 19.7191H48.6953Z" fill="white"/>
    <path d="M73.3733 19.1283L61.8932 8.58093H61.761V25.6651H65.0411L64.9789 15.9494L76.4746 26.3335H76.5678V9.22606H73.3034L73.3733 19.1283Z" fill="white"/>
    <path d="M94.0873 11.9309C93.3193 11.0643 92.3581 10.3906 91.2814 9.96447C89.9405 9.42638 88.5054 9.1621 87.0608 9.18721H82.1486V25.6496H87.8692C88.95 25.6562 90.0236 25.472 91.0404 25.1055C92.011 24.7626 92.9058 24.2347 93.6753 23.551C94.4383 22.848 95.0494 21.9962 95.4708 21.0482C95.922 20.0116 96.1472 18.8908 96.1315 17.7604C96.1276 16.7198 95.9597 15.6863 95.634 14.698C95.3128 13.6797 94.7864 12.738 94.0873 11.9309V11.9309ZM92.3851 19.7035C92.1442 20.3031 91.763 20.8362 91.2736 21.2581C90.7652 21.6889 90.1759 22.014 89.5403 22.2141C88.8172 22.433 88.065 22.5404 87.3096 22.5328H85.3897V12.3273H88.0246C88.4856 12.3397 88.943 12.4129 89.3848 12.545C89.9471 12.7044 90.4745 12.968 90.9394 13.3222C91.4895 13.7298 91.9344 14.2628 92.2374 14.8768C92.6191 15.6983 92.8002 16.5987 92.7659 17.5039C92.7857 18.25 92.6562 18.9926 92.3851 19.688V19.7035Z" fill="white"/>
    <path d="M110.829 18.6076C111.279 18.069 111.615 17.445 111.817 16.7733C112.016 16.1209 112.119 15.4425 112.12 14.7602C112.129 13.9777 111.984 13.2011 111.692 12.475C111.417 11.809 110.994 11.2139 110.456 10.734C109.866 10.227 109.178 9.84607 108.435 9.6147C107.544 9.34485 106.616 9.21377 105.684 9.22607H100.71V25.6496H103.943V20.4342H106.104L109.594 25.6496H113.371L109.539 19.6802C110.031 19.4036 110.468 19.0402 110.829 18.6076V18.6076ZM103.943 12.3895H106.275C106.744 12.3679 107.21 12.4698 107.627 12.6849C107.947 12.8444 108.216 13.0892 108.404 13.3922C108.557 13.6528 108.667 13.9362 108.731 14.2316C108.774 14.4573 108.8 14.686 108.809 14.9156C108.803 15.1792 108.761 15.4407 108.684 15.6929C108.592 15.972 108.456 16.2344 108.28 16.4701C108.076 16.7378 107.809 16.9513 107.503 17.0919C107.119 17.2721 106.698 17.3574 106.275 17.3407H103.943V12.3895Z" fill="white"/>
    <path d="M120.6 18.9885H127.657V15.8561H120.6V12.3507H128.574V9.22607H117.366V25.6651H128.885V22.5328H120.6V18.9885Z" fill="white"/>
    <path d="M139.129 8.54987L131.714 25.6496H134.909L136.246 22.4395H141.687L143.016 25.6496H146.77L139.355 8.54987H139.129ZM137.381 19.688L139.052 15.6851L140.606 19.688H137.381Z" fill="white"/>
    <path d="M162.292 9.22607H159.051V25.6651H170.018V22.5328H162.292V9.22607Z" fill="white"/>
    <path d="M187.56 11.5579C186.784 10.7853 185.872 10.161 184.871 9.71576C183.845 9.27482 182.739 9.04742 181.622 9.04742C180.505 9.04742 179.4 9.27482 178.373 9.71576C177.374 10.1555 176.467 10.7806 175.7 11.5579C174.941 12.3366 174.333 13.2482 173.904 14.2472C173.471 15.2645 173.252 16.3596 173.259 17.465C173.248 18.5859 173.468 19.697 173.904 20.7295C174.329 21.7237 174.938 22.6284 175.7 23.3955C176.464 24.1636 177.373 24.7737 178.373 25.191C180.454 26.0512 182.791 26.0512 184.871 25.191C185.874 24.769 186.786 24.1596 187.56 23.3955C188.336 22.6334 188.956 21.728 189.387 20.7295C189.832 19.6992 190.057 18.5873 190.048 17.465C190.053 16.3582 189.828 15.2623 189.387 14.2472C188.953 13.2437 188.333 12.3313 187.56 11.5579V11.5579ZM186.317 19.5092C186.076 20.1276 185.72 20.6947 185.268 21.1803C184.833 21.6612 184.304 22.0475 183.713 22.3151C183.095 22.5818 182.428 22.7168 181.754 22.7115C181.061 22.7176 180.373 22.5827 179.733 22.3151C179.122 22.0484 178.57 21.6626 178.109 21.1803C177.637 20.7008 177.265 20.1329 177.013 19.5092C176.748 18.8607 176.616 18.1656 176.624 17.465C176.618 16.756 176.744 16.052 176.998 15.3897C177.245 14.7645 177.609 14.1921 178.07 13.7031C178.527 13.2252 179.074 12.8421 179.679 12.5761C180.61 12.1641 181.647 12.0512 182.645 12.2531C183.643 12.4549 184.554 12.9616 185.252 13.7031C185.708 14.1961 186.072 14.7675 186.325 15.3897C186.587 16.05 186.719 16.7547 186.713 17.465C186.716 18.1658 186.581 18.8602 186.317 19.5092V19.5092Z" fill="white"/>
    <path d="M198.022 12.4362C198.514 12.125 199.09 11.9755 199.67 12.0087C200.293 12.0176 200.911 12.1305 201.497 12.3429C202.155 12.5793 202.792 12.8705 203.401 13.2134L204.629 10.734C203.932 10.2821 203.186 9.90936 202.406 9.62248C201.367 9.27892 200.275 9.12106 199.181 9.15612C198.247 9.17523 197.33 9.40647 196.499 9.83234C195.761 10.2139 195.14 10.7888 194.704 11.4957C194.268 12.2481 194.047 13.1058 194.066 13.9751C194.045 14.6666 194.195 15.3527 194.501 15.9727C194.779 16.5034 195.169 16.9674 195.644 17.3329C196.111 17.6979 196.617 18.0107 197.152 18.2656C197.688 18.5143 198.209 18.7397 198.706 18.934C199.123 19.0905 199.523 19.2857 199.903 19.517C200.232 19.7106 200.526 19.9575 200.774 20.2476C200.979 20.5006 201.091 20.8159 201.093 21.1415C201.116 21.5512 200.976 21.9536 200.704 22.2607C200.432 22.5318 200.095 22.7273 199.725 22.8281C199.344 22.9413 198.948 22.9989 198.551 22.9991C198.12 22.9922 197.692 22.9322 197.276 22.8203C196.804 22.6934 196.343 22.5243 195.901 22.3151C195.459 22.0936 195.037 21.8335 194.641 21.5379L193.219 24.0951C193.786 24.4869 194.393 24.8178 195.03 25.0822C195.642 25.3432 196.281 25.5386 196.934 25.6651C197.564 25.7873 198.205 25.8497 198.846 25.8517C199.92 25.8889 200.987 25.6648 201.955 25.1988C202.734 24.8049 203.39 24.2055 203.852 23.4655C204.279 22.763 204.502 21.9557 204.497 21.1337C204.517 20.4524 204.403 19.7739 204.163 19.1361C203.961 18.6266 203.656 18.1638 203.269 17.7759C202.895 17.4114 202.471 17.1025 202.01 16.8588C201.548 16.6191 201.073 16.4063 200.587 16.2214C200.066 16.0223 199.555 15.7966 199.056 15.5452C198.624 15.3498 198.225 15.0875 197.875 14.7679C197.718 14.6118 197.597 14.4241 197.518 14.2173C197.44 14.0105 197.407 13.7893 197.421 13.5686C197.435 13.3479 197.496 13.1327 197.599 12.9374C197.703 12.7422 197.847 12.5713 198.022 12.4362V12.4362Z" fill="white"/>
    <path d="M214.524 8.54987L207.109 25.6496H210.303L211.64 22.4395H217.081L218.41 25.6496H222.164L214.749 8.54987H214.524ZM212.775 19.688L214.446 15.6851L216 19.688H212.775Z" fill="white"/>
    <path d="M229.649 18.491L225.887 9.22607H222.001L229.509 26.4191L237.01 9.22607H233.17L229.649 18.491Z" fill="white"/>
    <path d="M244.425 9.22607H241.184V25.6651H244.425V9.22607Z" fill="white"/>
    <path d="M265.131 14.2472C264.697 13.2437 264.077 12.3313 263.304 11.5579C262.528 10.7853 261.616 10.161 260.615 9.71576C259.589 9.27482 258.483 9.04742 257.366 9.04742C256.249 9.04742 255.144 9.27482 254.117 9.71576C253.118 10.1555 252.21 10.7806 251.443 11.5579C250.685 12.3366 250.076 13.2482 249.648 14.2472C249.215 15.2645 248.996 16.3596 249.003 17.465C248.992 18.5859 249.212 19.697 249.648 20.7295C250.073 21.7237 250.682 22.6284 251.443 23.3955C252.208 24.1636 253.117 24.7737 254.117 25.191C256.198 26.0512 258.535 26.0512 260.615 25.191C261.618 24.769 262.53 24.1596 263.304 23.3955C264.08 22.6334 264.7 21.728 265.131 20.7295C265.576 19.6992 265.801 18.5873 265.792 17.465C265.797 16.3582 265.572 15.2623 265.131 14.2472V14.2472ZM262.061 19.5092C261.82 20.1276 261.464 20.6947 261.012 21.1803C260.577 21.6612 260.048 22.0475 259.457 22.3151C258.839 22.5818 258.172 22.7168 257.498 22.7115C256.805 22.7176 256.117 22.5827 255.477 22.3151C254.866 22.0484 254.314 21.6626 253.853 21.1803C253.381 20.7008 253.009 20.1329 252.757 19.5092C252.492 18.8607 252.36 18.1656 252.368 17.465C252.36 16.7552 252.49 16.0505 252.749 15.3897C252.991 14.7634 253.352 14.1904 253.814 13.7031C254.271 13.2252 254.818 12.8421 255.423 12.5761C256.354 12.1641 257.391 12.0512 258.389 12.2531C259.387 12.4549 260.298 12.9616 260.996 13.7031C261.452 14.1961 261.816 14.7675 262.069 15.3897C262.331 16.05 262.463 16.7547 262.457 17.465C262.46 18.1658 262.325 18.8602 262.061 19.5092V19.5092Z" fill="white"/>
    <path d="M40.4097 35H0L20.2088 0L28.6653 14.6513L23.7453 22.7348H33.3289L35.6218 26.7066H16.6722L23.9318 14.7835L24.0406 14.5969L20.2088 7.94359L6.87875 31.0282H38.1168L40.4097 35Z" fill="url(#paint0_linear_5_10)"/>
    <path d="M35.6218 26.7066H16.6722L23.9318 14.7835L24.0406 14.6513H28.6653L23.7453 22.7348H33.3289L35.6218 26.7066Z" fill="url(#paint1_linear_5_10)"/>
    <defs>
        <linearGradient id="paint0_linear_5_10" x1="20.2088" y1="5.01332" x2="20.2088" y2="30.5152" gradientUnits="userSpaceOnUse">
            <stop stop-color="#FFF001"/>
            <stop offset="1" stop-color="#3DE99E"/>
        </linearGradient>
        <linearGradient id="paint1_linear_5_10" x1="27.9658" y1="29.7846" x2="20.6673" y2="17.2396" gradientUnits="userSpaceOnUse">
            <stop stop-color="#FFF001"/>
            <stop offset="1" stop-color="#3DE99E"/>
        </linearGradient>
    </defs>
</svg>
