<svg xmlns="http://www.w3.org/2000/svg" viewBox="0 0 286.61 22.96"><defs><style>.cls-1{fill:#fff;}</style></defs><g id="Livello_2" data-name="Livello 2"><g id="LOGO"><path class="cls-1" d="M9.54,0,0,22H4.11l1.72-4.14h7L14.48,22h4.83L9.77,0ZM7.29,14.34,9.44,9.18l2,5.16Z"/><polygon class="cls-1" points="39.04 13.57 24.28 0 24.1 0 24.1 21.98 28.33 21.98 28.24 9.48 43.04 22.84 43.15 22.84 43.15 0.83 38.96 0.83 39.04 13.57"/><path class="cls-1" d="M65.69,4.31a9.6,9.6,0,0,0-3.61-2.53A13.93,13.93,0,0,0,56.65.83H50.33V22h7.36a11.75,11.75,0,0,0,4.08-.71,9.91,9.91,0,0,0,3.39-2A9.56,9.56,0,0,0,67.47,16a10.16,10.16,0,0,0,.85-4.24,12.82,12.82,0,0,0-.63-3.94A10.09,10.09,0,0,0,65.69,4.31Zm-2.18,10a5.36,5.36,0,0,1-1.44,2,6.25,6.25,0,0,1-2.23,1.22A9.25,9.25,0,0,1,57,18H54.5V4.83h3.39a7.12,7.12,0,0,1,1.75.27,6.06,6.06,0,0,1,2,1,5.66,5.66,0,0,1,1.66,2A7.31,7.31,0,0,1,64,11.49,7.36,7.36,0,0,1,63.51,14.29Z"/><path class="cls-1" d="M87.24,12.9a6.74,6.74,0,0,0,1.26-2.36A8.88,8.88,0,0,0,88.89,8,7.53,7.53,0,0,0,88.34,5a6.12,6.12,0,0,0-1.59-2.24,7.17,7.17,0,0,0-2.6-1.43A11.33,11.33,0,0,0,80.61.83h-6.4V22h4.16V15.26h2.78L85.61,22h4.86l-4.93-7.69A5.85,5.85,0,0,0,87.24,12.9Zm-8.87-8h3a3.46,3.46,0,0,1,1.74.37,2.51,2.51,0,0,1,1,.92,3.45,3.45,0,0,1,.42,1.08,4.53,4.53,0,0,1,.1.87,3.29,3.29,0,0,1-.16,1,3.08,3.08,0,0,1-.52,1,2.67,2.67,0,0,1-1,.81,3.5,3.5,0,0,1-1.58.31h-3Z"/><polygon class="cls-1" points="99.81 13.39 108.89 13.39 108.89 9.37 99.81 9.37 99.81 4.86 110.06 4.86 110.06 0.83 95.64 0.83 95.64 21.98 110.47 21.98 110.47 17.96 99.81 17.96 99.81 13.39"/><path class="cls-1" d="M123.65,0l-9.54,22h4.11l1.72-4.14h7L128.59,22h4.83L123.88,0ZM121.4,14.34l2.15-5.16,2,5.16Z"/><polygon class="cls-1" points="153.44 0.83 149.28 0.83 149.28 21.98 163.38 21.98 163.38 17.96 153.44 17.96 153.44 0.83"/><path class="cls-1" d="M186,3.84a11.11,11.11,0,0,0-3.46-2.37,10.48,10.48,0,0,0-8.36,0,10.75,10.75,0,0,0-3.43,2.37,11.13,11.13,0,0,0-2.32,3.46,10.51,10.51,0,0,0-.83,4.13,10.79,10.79,0,0,0,14.94,10A11.13,11.13,0,0,0,186,19.06a10.73,10.73,0,0,0,2.36-3.43,10.51,10.51,0,0,0,.85-4.2,10.35,10.35,0,0,0-.85-4.13A11.08,11.08,0,0,0,186,3.84Zm-1.59,10.22A7,7,0,0,1,183,16.22a6.24,6.24,0,0,1-2,1.45,6.16,6.16,0,0,1-2.51.52,6.44,6.44,0,0,1-4.7-2,6.84,6.84,0,0,1-1.41-2.16,6.92,6.92,0,0,1-.5-2.63,7.16,7.16,0,0,1,.49-2.67,6.58,6.58,0,0,1,1.38-2.17,6.4,6.4,0,0,1,2.07-1.45,6.31,6.31,0,0,1,2.55-.51,6.39,6.39,0,0,1,2.56.51A6.32,6.32,0,0,1,183,6.59a7,7,0,0,1,1.89,4.84A7.11,7.11,0,0,1,184.36,14.06Z"/><path class="cls-1" d="M199.41,5a3.69,3.69,0,0,1,2.13-.55,7.17,7.17,0,0,1,2.34.44A15.16,15.16,0,0,1,206.33,6l1.59-3.19a14.43,14.43,0,0,0-2.86-1.44,12,12,0,0,0-4.15-.6,8.13,8.13,0,0,0-3.45.87,5.88,5.88,0,0,0-2.32,2.15,6.06,6.06,0,0,0-.81,3.18,5.35,5.35,0,0,0,.56,2.58,5.51,5.51,0,0,0,1.46,1.75,10.41,10.41,0,0,0,1.94,1.19c.69.33,1.36.61,2,.86a8.8,8.8,0,0,1,1.54.75A4.28,4.28,0,0,1,203,15a1.76,1.76,0,0,1,.42,1.15,1.94,1.94,0,0,1-.51,1.43,2.75,2.75,0,0,1-1.26.74,5.67,5.67,0,0,1-1.51.21,6.79,6.79,0,0,1-1.64-.23,9.38,9.38,0,0,1-1.76-.65,9.07,9.07,0,0,1-1.63-1l-1.84,3.25A12.46,12.46,0,0,0,198,22a12.2,12.2,0,0,0,2.45.25,8.39,8.39,0,0,0,4-.85,6,6,0,0,0,2.44-2.23,5.61,5.61,0,0,0,.83-3,6.76,6.76,0,0,0-.43-2.58,5.13,5.13,0,0,0-1.15-1.75,7,7,0,0,0-1.62-1.18,17.16,17.16,0,0,0-1.82-.81A19.9,19.9,0,0,1,200.75,9a5.42,5.42,0,0,1-1.53-1,1.82,1.82,0,0,1-.58-1.33A1.86,1.86,0,0,1,199.41,5Z"/><path class="cls-1" d="M220.67,0l-9.54,22h4.11L217,17.84h7L225.61,22h4.83L220.9,0Zm-2.25,14.34,2.15-5.16,2,5.16Z"/><polygon class="cls-1" points="240.1 12.75 235.27 0.83 230.27 0.83 239.92 22.95 249.57 0.83 244.63 0.83 240.1 12.75"/><rect class="cls-1" x="254.95" y="0.83" width="4.17" height="21.15"/><path class="cls-1" d="M285.76,7.3a11.34,11.34,0,0,0-5.82-5.83,10.48,10.48,0,0,0-8.36,0,10.75,10.75,0,0,0-3.43,2.37,11.13,11.13,0,0,0-2.32,3.46,10.51,10.51,0,0,0-.83,4.13,10.79,10.79,0,0,0,14.94,10,11.13,11.13,0,0,0,3.46-2.32,10.73,10.73,0,0,0,2.36-3.43,10.51,10.51,0,0,0,.85-4.2A10.35,10.35,0,0,0,285.76,7.3Zm-3.95,6.76a7,7,0,0,1-1.35,2.16,6.24,6.24,0,0,1-2,1.45,6.16,6.16,0,0,1-2.51.52,6.44,6.44,0,0,1-4.7-2,6.84,6.84,0,0,1-1.41-2.16,6.92,6.92,0,0,1-.5-2.63,7.16,7.16,0,0,1,.49-2.67,6.58,6.58,0,0,1,1.38-2.17,6.4,6.4,0,0,1,2.07-1.45,6.31,6.31,0,0,1,2.55-.51,6.39,6.39,0,0,1,2.56.51,6.32,6.32,0,0,1,2.05,1.45,7,7,0,0,1,1.89,4.84A7.11,7.11,0,0,1,281.81,14.06Z"/></g></g></svg>