<svg xmlns="http://www.w3.org/2000/svg" viewBox="0 0 1463.27 1184.54"><defs><style>.cls-1{isolation:isolate;}.cls-2{fill:#d6e3e8;}.cls-3{fill:#d2e2ed;}.cls-4{fill:#4581c5;}.cls-5{fill:#fff;}.cls-6{fill:#334d5c;}.cls-7{fill:#bcb3bd;}.cls-8{fill:#a098a0;}.cls-9{fill:#f9d6bd;}.cls-10{fill:#e5bba5;}.cls-11{fill:#f9c9ae;}.cls-12{fill:#4e4b63;}.cls-13{fill:#322f41;}.cls-14{fill:#8ed5a8;}.cls-15{fill:#ffa399;}.cls-16{fill:#ffcb52;}.cls-17{fill:#cc9e40;}.cls-18{fill:#bdbab2;}.cls-19{fill:#38424d;}.cls-20{fill:#d2c6cd;}.cls-21{fill:#fffaf3;}.cls-22{fill:#614bee;}.cls-23{fill:#e75582;}.cls-24{fill:#8e7af6;}.cls-25{fill:#a6a6a6;}.cls-26{fill:#fb392e;}.cls-27{fill:#fecb15;}.cls-28{fill:#26a659;}.cls-29{fill:#e0e0e0;}.cls-30{fill:#e29616;}.cls-31{fill:#f19b0f;}.cls-32{fill:#17bb99;}.cls-33{fill:#fbdd82;}.cls-34{fill:#89c0c8;}.cls-35{fill:#f15281;}.cls-36{opacity:0.45;}.cls-37{fill:#b7c6ce;}.cls-38{fill:#aab5ba;}.cls-39{fill:#fafafa;}.cls-40{opacity:0.6;}.cls-40,.cls-41{mix-blend-mode:screen;}.cls-41{fill:#d1bdd1;opacity:0.3;}.cls-42{opacity:0.5;}</style></defs><g class="cls-1"><g id="Livello_2" data-name="Livello 2"><g id="Layer_1" data-name="Layer 1"><path class="cls-2" d="M1459.65,747c-1.36,11.56-3.25,23.11-5.56,34.45a430.78,430.78,0,0,1-21.11,75.3c-3,8.2-6.3,16.39-9.77,24.37-2.84,6.09-5.67,12.39-8.72,18.38v.1c-3.67,7.25-7.35,14.29-11.34,21.22-4.94,8.82-10.29,17.64-16,26.25a494.54,494.54,0,0,1-30.67,41.7v.1a530.47,530.47,0,0,1-65.12,66.48l-2.1,1.79-.1.1c-52.72,44.74-99.46,59.87-145.14,61.13H1144a250.61,250.61,0,0,1-29.41-1,461.26,461.26,0,0,1-49.36-7.56c-51.35-10.5-105.13-26.88-168.25-27.09-3-.11-6.09,0-9.13,0-.53,0-1,.1-1.68.1-8.09.21-16.49.63-24.89,1.47a338.1,338.1,0,0,0-44.53,7c-9.25,2-18.8,4.51-28.47,7.45-7.77,2.31-15.54,5.05-23.73,8-2.42.94-4.94,1.78-7.35,2.83l-1.37.53c-13.23,5.25-26.15,10.08-39.07,14.7-4.72,1.79-9.55,3.57-14.28,5.15-10.92,4-21.53,7.56-32,10.92-5.36,1.78-10.61,3.46-15.86,5-59.44,18.9-113.64,31.19-162.68,36.13a420.18,420.18,0,0,1-60,2.1,51.52,51.52,0,0,1-5.78-.42c-5.15-.11-10.29-.53-15.23-1-3.67-.42-7.35-.84-11-1.37-4.21-.52-8.41-1.15-12.5-2-2.31-.42-4.62-1-6.93-1.47-3.37-.53-6.73-1.37-10.09-2.21-41.48-10.61-76.77-30.88-105.76-62.38-28.77-31.62-51.25-74.26-66.79-129.71C159,847.12,256.81,776,318,684.44c6.51-9.87,12.71-19.85,18.17-30.25,10.61-20,18.91-41.27,23.21-64.59C373.18,516.93,312.05,443.72,302.5,367a264.33,264.33,0,0,1,.42-67.53,237.36,237.36,0,0,1,4.41-23.84c17.33-76.25,69.42-151.13,166.46-196.71,22.37-10.5,44.85-19.85,67.32-28.25,3-1.26,6.3-2.42,9.45-3.47l2.84-.94a21.07,21.07,0,0,1,2.42-.84c7-2.63,14.28-5,21.42-7.25C716.08-6.83,854.92-11.45,979.17,21.21c9,2.21,18,4.83,26.88,7.56,4.73,1.37,9.35,2.94,14.08,4.52a569.84,569.84,0,0,1,149.13,75.62c8.51,5.77,16.6,11.86,24.68,18.17a575.92,575.92,0,0,1,122.57,133.48c8.61,12.92,16.8,25.84,24.68,38.75,13.33,22.06,25.73,44.12,36.86,66.07C1445.79,497.92,1473.94,628.15,1459.65,747Z"/><ellipse class="cls-3" cx="135.53" cy="574.27" rx="135.34" ry="147.37" transform="translate(-68.36 20.57) rotate(-6.94)"/><path class="cls-4" d="M155.27,294.65c62.32,0,113,41.28,113,92,0,42.15-35.76,78.05-85.31,88.35,2.19,7.08,11.64,36,10.26,37.05-1.86,1.44-10.32-5.35-12.3-6.59,0,0-43.76-27.91-44.7-28.49-54.48-7.57-94-45.18-94-90.32C42.27,335.93,93,294.65,155.27,294.65Z"/><path class="cls-5" d="M109.57,387.86A13.52,13.52,0,1,1,96,374.35,13.52,13.52,0,0,1,109.57,387.86Z"/><path class="cls-5" d="M167.23,387.86a13.52,13.52,0,1,1-13.54-13.51A13.52,13.52,0,0,1,167.23,387.86Z"/><path class="cls-5" d="M226.83,387.86a13.52,13.52,0,1,1-13.52-13.51A13.5,13.5,0,0,1,226.83,387.86Z"/><path class="cls-6" d="M734.16,396.06a2,2,0,0,1-.34,0,2.63,2.63,0,0,1-2.27-2.94l.2-1.55a2.63,2.63,0,1,1,5.21.66l-.2,1.56A2.62,2.62,0,0,1,734.16,396.06Z"/><path class="cls-6" d="M717.6,523.8a2.11,2.11,0,0,1-.35,0,2.62,2.62,0,0,1-2.26-2.94l.42-3.28a2.63,2.63,0,0,1,5.21.68l-.42,3.28A2.63,2.63,0,0,1,717.6,523.8Zm1.84-14.19-.34,0a2.63,2.63,0,0,1-2.27-2.94l.42-3.28a2.63,2.63,0,1,1,5.21.68l-.42,3.27A2.63,2.63,0,0,1,719.44,509.61Zm1.84-14.19a2,2,0,0,1-.34,0,2.63,2.63,0,0,1-2.27-2.94l.43-3.28a2.63,2.63,0,0,1,5.21.68l-.43,3.28A2.63,2.63,0,0,1,721.28,495.42Zm1.84-14.2a1.94,1.94,0,0,1-.34,0,2.64,2.64,0,0,1-2.27-2.94l.43-3.28a2.63,2.63,0,0,1,5.21.68l-.43,3.27A2.62,2.62,0,0,1,723.12,481.22ZM725,467a2,2,0,0,1-.34,0,2.63,2.63,0,0,1-2.27-2.94l.42-3.27a2.63,2.63,0,1,1,5.21.66l-.42,3.28A2.62,2.62,0,0,1,725,467Zm1.84-14.19-.34,0a2.64,2.64,0,0,1-2.27-2.94l.42-3.28a2.66,2.66,0,0,1,2.94-2.27,2.62,2.62,0,0,1,2.27,2.94l-.42,3.27A2.63,2.63,0,0,1,726.8,452.84Zm1.84-14.2a1.94,1.94,0,0,1-.34,0,2.63,2.63,0,0,1-2.27-2.94l.42-3.28a2.63,2.63,0,1,1,5.21.68l-.42,3.27A2.63,2.63,0,0,1,728.64,438.64Zm1.84-14.19-.34,0a2.64,2.64,0,0,1-2.27-2.95l.43-3.27a2.63,2.63,0,1,1,5.21.68l-.43,3.27A2.63,2.63,0,0,1,730.48,424.45Zm1.84-14.19-.34,0a2.64,2.64,0,0,1-2.27-2.95l.43-3.27a2.63,2.63,0,0,1,5.21.67l-.43,3.28A2.63,2.63,0,0,1,732.32,410.26Z"/><path class="cls-6" d="M716,536.29l-.34,0a2.64,2.64,0,0,1-2.27-2.94l.2-1.57a2.63,2.63,0,0,1,5.21.67l-.2,1.56A2.63,2.63,0,0,1,716,536.29Z"/><path class="cls-7" d="M224.91,666.37s-34.38-19.87-73.34,6.11-48.9,51.19-39,87.87S160,879.54,177.54,923.09c10.37,25.69,46.79,109.06,74.91,173.13,43,69.33,134.91,83.2,134.91,83.2l-54.71-148.6Z"/><path class="cls-8" d="M294.44,754.23l-44-67.45a47.59,47.59,0,0,0-63.91-15.07l-16.69,9.77a47.59,47.59,0,0,0-18.69,62L360.7,1172.77l27.57,6.9Z"/><path class="cls-9" d="M1387.19,947.1a494.54,494.54,0,0,1-30.67,41.7v.1l-291.34,121c-51.35-10.5-105.13-26.88-168.25-27.09-3-.11-6.09,0-9.13,0-.53,0-1,.1-1.68.1-8.09.21-16.49.63-24.89,1.47L530.51,836l333.13-58.08Z"/><path class="cls-10" d="M546.47,848l314.76,236.41a338.1,338.1,0,0,0-44.53,7l-293.76-237Z"/><path class="cls-10" d="M1356.52,988.9a530.47,530.47,0,0,1-65.12,66.48l-2.1,1.79-.1.1-145.14,61.13H1144a250.61,250.61,0,0,1-29.41-1,461.26,461.26,0,0,1-49.36-7.56Z"/><path class="cls-11" d="M1356.52,988.8a524.28,524.28,0,0,1-65.12,66.58l-2.2,1.89-145.14,61.13a252.42,252.42,0,0,1-29.52-1,461.26,461.26,0,0,1-49.36-7.56Z"/><polygon class="cls-12" points="1031.75 993.38 1128.02 952.89 879.71 848.98 802.54 868.08 809.41 884.12 1031.75 993.38"/><polygon class="cls-13" points="1128.02 952.89 1128.02 970.84 1031.75 993.38 1128.02 952.89"/><ellipse class="cls-13" cx="1090.04" cy="892.72" rx="25" ry="79.56" transform="translate(80.24 1875.29) rotate(-83.53)"/><polygon class="cls-13" points="1061.58 825.67 1076.86 868.46 1130.35 879.16 1113.54 833.31 1061.58 825.67"/><path class="cls-13" d="M912,793.32l369.69,89.34a23.12,23.12,0,0,0,28.3-19l52.65-349.39a13,13,0,0,0-13-15l-415.12,2.5a13.85,13.85,0,0,0-13.69,12.42L894.43,768.45A23.14,23.14,0,0,0,912,793.32Z"/><polygon class="cls-14" points="1295.41 837.34 1343.58 517.63 938.67 520.07 914.12 753.85 1295.41 837.34"/><path class="cls-13" d="M1043.65,1044.86s10.94,4.86,29.8,2.62,44.15-11.9,48.87-14.88,8.23-9.87,4.55-12.63-40.15-8.71-44.62-6.72-17.12,7.19-18.73,8.68-8.68,12-8.93,13S1043.65,1044.86,1043.65,1044.86Z"/><path class="cls-12" d="M1031.77,1034.58c1,6.7,10.66,12.16,20.09,10.67s34.24-21.33,44.41-23.32,25.3-2.48,29.77-1.49-9.43-13.64-18.11-16.62-32.5-11.91-45.9-8.68S1028.29,1012.5,1031.77,1034.58Z"/><path class="cls-15" d="M517.45,484.75s11.54,36.17,13.61,64.59c2.6,22.76,12.49,23.45,17.82,25.87s1.65,13-12.72,18.26c0,0,2.62,55.08-10.75,64.49s-61-1.17-67.3,2.11-9.31,41.18-8,52.33c0,0-65.54-33.38-96.6-35.33l1.44-57.25s-50.46-97.73-14.08-138.33S466.77,425.92,517.45,484.75Z"/><path class="cls-13" d="M518.21,633c-9,2.56-40.39,13.46-53.57,9.74-13-3.67-30.76-46.7-24.37-105.08,1.38-12.59,12.13-27.09,21.19-38.08a39.14,39.14,0,0,1,30.28-14.16c41.38.14,56.59-10,38.76-41.84a40,40,0,0,0-4-5.88,98.09,98.09,0,0,0-43.31-29.62c-46.63-15.74-139.54-26.22-172.67,49.28,0,0-43.7,26-9.17,104.29,25.65,52.94,57.57,61.12,57.57,61.12s26.51-9.86,36.78-23.13a11.92,11.92,0,0,0,.7-13c-5.24-9.54-15.84-33.09,2-45.44,17.36-12,23.87,8.94,26.67,30.94,1.58,14.74,6,40.94,12.38,59.43,6.87,20.06,13.75,33.81,47.56,35.53,31.29,1.59,50.06,3.18,53.6-25.66C539.09,637.25,535.26,628.17,518.21,633Z"/><path class="cls-15" d="M571.79,907.81s98.57-8.6,131.23-13.18,50.43-10.89,62.46-4.59,34.19,5.93,46.61,5,30.18,4.2,38.58,2.1,7.26-12-5.92-14.9-26.74-.57-32.85-5-.39-14.71,8.59-15.86,28.27,4.78,37.82,9.55,19.1,9.17,24.26,9.17,8.79-7.26-1.53-11.65-25.21-14.52-25.21-14.52,27.7,3.06,34.76,2.3,9.94-7.84-.57-10.13-47.18-6.11-51.57-7.64c0,0,6.11-3.82,3.63-6.68s-7.45-1.34-17,1.71-54.25,16.43-64.76,17.77-145.74-7.64-169.81-9.17-68-15.28-68-15.28Z"/><path class="cls-16" d="M654.54,1146c-59.44,18.9-113.64,31.19-162.68,36.13a420.18,420.18,0,0,1-60,2.1,51.52,51.52,0,0,1-5.78-.42c-5.15-.11-10.29-.53-15.23-1-3.67-.42-7.35-.84-11-1.37-4.21-.52-8.41-1.15-12.5-2C358.27,1132.68,273,983.65,269.21,840.61c0-104,63.43-150.61,63.43-150.61L335,671.73s67.22,5.36,122.25,45.06c9.87,16.8,9.14,29.82,9.14,29.82S562.64,839,596.25,938.39C621,1011.59,644.14,1103.06,654.54,1146Z"/><path class="cls-15" d="M600.83,913.16s68.76,42,87.1,49.66,171.53-22.16,178-23.69,14.52-27.88,15.28-33.23,3.44-9.36,8-10.13,10.12,4,8.59,14c0,0,15.86-12,23.11-11.08s18.34,4.58,27.13,2.48,26.17,1.72,26.17,1.72,9.74-1.14,15.28-3.05,8.78,1.14,9.55,4.77-6.69,8.21-14.14,10.51c0,0,12.8.95,18.15,3.24s5.92,9.36,0,10.51-23.3,6.11-29.42,13.94-15.66,19.3-26.55,25.79-29.6,8-49.85,14.52-143.64,63-192.92,79.84S576,1031.58,576,1031.58,585.93,914.3,600.83,913.16Z"/><path class="cls-16" d="M599.3,900.93s3.44,67.62-16,142.12c0,0-134.09-21.78-232.65-130.66-41.64-55.77-11.08-116.9,30.95-137.53,26.63-13.07,95.5-3.82,132.94,47.37S599.3,900.93,599.3,900.93Z"/><path class="cls-17" d="M583.25,1043.05c-22.36-3.47-44.25-9.72-65.65-17.2q-16.05-5.64-31.66-12.51l-15.41-7.27c-5.19-2.33-10.1-5.21-15.15-7.82-10.16-5.14-19.72-11.34-29.5-17.17-9.35-6.49-19.09-12.47-27.92-19.71-4.45-3.56-9.08-6.91-13.38-10.66l-12.79-11.37c-8.64-7.48-16.17-16.11-24.31-24.12l-.25-.31c-2.55-3.86-5.24-7.64-7.66-11.58-2-4.18-4.5-8.15-6.12-12.53s-3.48-8.68-4.33-13.31l-1.57-6.85-.78-7c-.78-4.65-.16-9.37-.27-14.06.72-4.63.8-9.39,2.17-13.9,1.88-9.22,5.88-17.81,10.29-26a108.24,108.24,0,0,1,17.18-22,99.38,99.38,0,0,1,22.78-16.18c2.61-1.3,4.3-1.77,6.49-2.7l7.24-1.85a97.41,97.41,0,0,1,14-1.41,127.55,127.55,0,0,1,27.49,2.52,132.46,132.46,0,0,1,26.21,8.14,141.13,141.13,0,0,1,24.09,13c7.44,5.3,14.68,11,20.83,17.74a94.49,94.49,0,0,1,8.88,10.4c2.9,3.6,5.36,7.08,8.08,10.71,5.35,7,11,13.75,16.92,20.4s12.12,13,18.57,19.06a319.41,319.41,0,0,0,41.62,33.35c-15.55-8.8-29.94-19.57-43.55-31.2q-10.2-8.78-19.67-18.36a266.63,266.63,0,0,1-17.94-20.16c-5.66-7-10.78-14.14-17.1-20.09-6-6.29-13.1-11.47-20.3-16.31a133.06,133.06,0,0,0-23.23-11.71,145.53,145.53,0,0,0-24.93-7.28,119.7,119.7,0,0,0-25.7-2.11,87.79,87.79,0,0,0-12.62,1.38l-5.72,1.47c-1.91.81-4.5,1.71-5.84,2.46a90.82,90.82,0,0,0-20.53,14.9,99.34,99.34,0,0,0-15.48,20.2c-3.91,7.5-7.51,15.3-9.1,23.64-1.27,4-1.34,8.33-2.07,12.49.11,4.21-.56,8.46.14,12.65l.63,6.31,1.38,6.2c.7,4.2,2.44,8.11,3.81,12.13s3.71,7.67,5.5,11.54c2.21,3.66,4.68,7.18,7,10.8l-.25-.31c7.89,7.9,15.18,16.44,23.57,23.83l12.43,11.28c4.18,3.71,8.69,7,13,10.57s8.64,7.13,13.28,10.28l13.64,9.81c9.46,6,18.71,12.4,28.58,17.75,4.91,2.72,9.68,5.72,14.74,8.16l15,7.62c10.2,4.72,20.4,9.45,30.85,13.66s21,8.07,31.76,11.54S572.2,1040.66,583.25,1043.05Z"/><path class="cls-18" d="M872.23,722.76,640.57,679.9a8.51,8.51,0,0,1-7-8.95l8.74-131a8.53,8.53,0,0,1,8.51-8h239.8a8.52,8.52,0,0,1,8.49,9.35L882.27,715.19A8.53,8.53,0,0,1,872.23,722.76Z"/><path class="cls-19" d="M897.75,555.77l-256.08-5.68.81-12.1a6.44,6.44,0,0,1,6.44-6H893a6.45,6.45,0,0,1,6.42,7.08Z"/><path class="cls-20" d="M654,541.54a3.68,3.68,0,0,1-3.47,3.5,3.07,3.07,0,0,1-2.82-3.57,3.73,3.73,0,0,1,3.48-3.5A3,3,0,0,1,654,541.54Z"/><path class="cls-20" d="M663.85,541.65a3.73,3.73,0,0,1-3.48,3.55,3.07,3.07,0,0,1-2.8-3.62,3.75,3.75,0,0,1,3.48-3.56C662.79,538,664,539.65,663.85,541.65Z"/><path class="cls-20" d="M673.66,541.76a3.78,3.78,0,0,1-3.49,3.61c-1.74,0-3-1.67-2.8-3.68a3.81,3.81,0,0,1,3.5-3.61C672.61,538.09,673.85,539.73,673.66,541.76Z"/><polygon class="cls-5" points="662.94 674.87 660.13 674.38 668.27 559.5 671.15 559.6 662.94 674.87"/><polygon class="cls-5" points="660.93 567.21 656.15 567 656.45 562.63 661.24 562.81 660.93 567.21"/><polygon class="cls-5" points="660.25 576.86 655.49 576.6 655.79 572.23 660.56 572.46 660.25 576.86"/><polygon class="cls-5" points="659.58 586.51 654.82 586.2 655.13 581.81 659.89 582.1 659.58 586.51"/><polygon class="cls-5" points="658.91 596.16 654.16 595.79 654.46 591.41 659.22 591.75 658.91 596.16"/><polygon class="cls-5" points="658.23 605.8 653.5 605.38 653.8 601.01 658.54 601.41 658.23 605.8"/><polygon class="cls-5" points="657.56 615.46 652.84 614.98 653.14 610.6 657.87 611.05 657.56 615.46"/><polygon class="cls-5" points="656.89 625.1 652.17 624.57 652.48 620.19 657.19 620.7 656.89 625.1"/><polygon class="cls-5" points="656.21 634.75 651.51 634.16 651.81 629.78 656.52 630.35 656.21 634.75"/><polygon class="cls-5" points="655.54 644.4 650.85 643.75 651.15 639.38 655.85 640 655.54 644.4"/><polygon class="cls-5" points="654.87 654.05 650.18 653.35 650.49 648.96 655.17 649.63 654.87 654.05"/><polygon class="cls-5" points="654.19 663.69 649.52 662.93 649.82 658.56 654.5 659.29 654.19 663.69"/><path class="cls-5" d="M682.63,562.37l-3.72,3.37a.61.61,0,0,0-.06.87L682,570a.7.7,0,0,0,.94.06.67.67,0,0,0,.24-.45.61.61,0,0,0-.16-.46s-2.09-2.28-2.7-3l3.27-2.94a.65.65,0,0,0,.21-.42.64.64,0,0,0-.19-.48A.69.69,0,0,0,682.63,562.37Z"/><path class="cls-5" d="M699.09,562.92a.67.67,0,0,0-.25.47.6.6,0,0,0,.14.44s2.19,2.54,2.81,3.24l-3.13,2.78a.63.63,0,0,0-.22.45.58.58,0,0,0,.17.47.69.69,0,0,0,.95,0l3.6-3.2a.65.65,0,0,0,.07-.9L700,563A.67.67,0,0,0,699.09,562.92Z"/><path class="cls-5" d="M693.64,563.09l-6.92,6a.59.59,0,0,0-.05.89.67.67,0,0,0,.94,0l6.93-6a.62.62,0,0,0,.05-.9A.69.69,0,0,0,693.64,563.09Z"/><path class="cls-5" d="M674.83,669.44l-3.64,2.93a.6.6,0,0,0-.06.87l3,3.83a.68.68,0,0,0,.92.18.54.54,0,0,0,.24-.42.66.66,0,0,0-.16-.47L672.53,673l3.19-2.56a.57.57,0,0,0,.21-.4.7.7,0,0,0-.18-.51A.69.69,0,0,0,674.83,669.44Z"/><path class="cls-5" d="M690.88,672a.65.65,0,0,0-.24.45.75.75,0,0,0,.13.47l2.74,3.62L690.45,679a.55.55,0,0,0-.21.41.67.67,0,0,0,.16.51.68.68,0,0,0,.93.14l3.52-2.79a.65.65,0,0,0,.07-.9l-3.12-4.14A.7.7,0,0,0,690.88,672Z"/><path class="cls-5" d="M685.57,671.55l-6.77,5.2a.61.61,0,0,0,0,.9.67.67,0,0,0,.92.15l6.77-5.19a.65.65,0,0,0,.06-.92A.68.68,0,0,0,685.57,671.55Z"/><polygon class="cls-5" points="694.74 577.5 672.99 576.35 673.28 572.34 695.04 573.37 694.74 577.5"/><polygon class="cls-5" points="693.29 632.71 669.16 629.88 669.45 625.85 693.61 628.57 693.29 632.71"/><polygon class="cls-5" points="682.89 668.3 666.59 665.67 666.88 661.64 683.2 664.19 682.89 668.3"/><polygon class="cls-5" points="712.39 587.84 677.72 585.65 678.01 581.59 712.72 583.61 712.39 587.84"/><polygon class="cls-5" points="705.15 643.68 673.8 639.65 674.1 635.6 705.47 639.48 705.15 643.68"/><polygon class="cls-5" points="703.87 652.58 673.18 648.32 673.47 644.27 704.19 648.39 703.87 652.58"/><polygon class="cls-5" points="688.93 659.79 672.52 657.33 672.82 653.27 689.24 655.66 688.93 659.79"/><polygon class="cls-5" points="762.71 670.86 692.84 660.38 693.15 656.22 763.09 666.37 762.71 670.86"/><polygon class="cls-5" points="758.38 660.16 707.48 653.08 707.8 648.87 758.75 655.7 758.38 660.16"/><polygon class="cls-5" points="778.74 662.99 762.29 660.71 762.67 656.23 779.13 658.44 778.74 662.99"/><polygon class="cls-5" points="819.71 658.39 786.96 654.19 787.36 649.59 820.14 653.64 819.71 658.39"/><polygon class="cls-5" points="782.83 653.66 708.49 644.11 708.81 639.89 783.23 649.08 782.83 653.66"/><polygon class="cls-5" points="735.87 589.32 715.97 588.07 716.3 583.82 736.21 584.99 735.87 589.32"/><polygon class="cls-5" points="699.22 605.81 676.4 603.87 676.69 599.82 699.54 601.65 699.22 605.81"/><polygon class="cls-5" points="740.01 609.26 702.94 606.14 703.26 601.96 740.36 604.89 740.01 609.26"/><polygon class="cls-5" points="775.08 591.8 739.45 589.55 739.8 585.2 775.47 587.28 775.08 591.8"/><polygon class="cls-5" points="716.48 597.8 677.05 594.87 677.34 590.82 716.81 593.56 716.48 597.8"/><polygon class="cls-5" points="759.12 600.96 720.55 598.1 720.88 593.84 759.49 596.52 759.12 600.96"/><polygon class="cls-5" points="789.9 603.25 762.94 601.25 763.31 596.78 790.3 598.66 789.9 603.25"/><polygon class="cls-5" points="722.28 617.33 675.74 612.87 676.04 608.82 722.61 613.05 722.28 617.33"/><polygon class="cls-5" points="750.67 620.05 725.85 617.67 726.19 613.38 751.03 615.64 750.67 620.05"/><polygon class="cls-5" points="721.57 626.36 675.12 621.43 675.42 617.37 721.9 622.08 721.57 626.36"/><polygon class="cls-5" points="768.2 631.32 725.13 626.74 725.47 622.44 768.58 626.81 768.2 631.32"/><polygon class="cls-5" points="802.97 625.07 754.81 620.45 755.18 616.02 803.38 620.4 802.97 625.07"/><polygon class="cls-5" points="710.13 578.3 698.91 577.72 699.22 573.57 710.46 574.11 710.13 578.3"/><path class="cls-21" d="M1394.42,474.45l-191.27,1.32c-3.5,0-5.57-3.24-4.81-7.49L1221,341.16c.76-4.29,4.24-8,8-8.4l197.58-20.33c4.14-.37,7,2.9,6.2,7L1403.59,466.3C1402.73,470.59,1398.49,474.37,1394.42,474.45Z"/><path class="cls-19" d="M1430.38,331.44l-211.09,19.48,2.06-11.62c.58-3.25,3.21-6,6-6.35l201.06-20.68a4.26,4.26,0,0,1,4.69,5.32Z"/><path class="cls-20" d="M1230.51,341.51c-.37,1.88-1.83,3.52-3.27,3.67s-2.3-1.23-1.93-3.1,1.85-3.5,3.28-3.67S1230.89,339.64,1230.51,341.51Z"/><path class="cls-20" d="M1238.62,340.63c-.38,1.9-1.85,3.56-3.28,3.71s-2.29-1.26-1.91-3.14,1.84-3.54,3.28-3.7S1239,338.74,1238.62,340.63Z"/><path class="cls-20" d="M1246.72,339.76c-.39,1.92-1.85,3.59-3.28,3.74s-2.3-1.27-1.91-3.18,1.86-3.57,3.3-3.73S1247.11,337.85,1246.72,339.76Z"/><path class="cls-22" d="M1243.61,358.74l-3.46,3.56a.65.65,0,0,0-.14.82l2.2,2.84a.54.54,0,0,0,.78-.06.86.86,0,0,0,.25-.44.48.48,0,0,0-.09-.41l-1.91-2.47,3-3.1a.86.86,0,0,0,.22-.42.5.5,0,0,0-.1-.43C1244.22,358.43,1243.87,358.47,1243.61,358.74Z"/><path class="cls-22" d="M1257.2,357.47a.86.86,0,0,0-.26.46.6.6,0,0,0,.07.4l2,2.69-2.9,2.91a.89.89,0,0,0-.23.44.48.48,0,0,0,.09.42.53.53,0,0,0,.78-.08l3.35-3.36a.68.68,0,0,0,.15-.83l-2.25-3.09C1257.82,357.2,1257.47,357.22,1257.2,357.47Z"/><path class="cls-22" d="M1252.67,358.22l-6.41,6.35a.63.63,0,0,0-.14.84c.16.22.52.18.78-.08l6.41-6.34a.66.66,0,0,0,.14-.84C1253.28,357.93,1252.93,358,1252.67,358.22Z"/><path class="cls-22" d="M1225,460.58l-3.4,3.38a.7.7,0,0,0-.15.85l2.12,3.12a.48.48,0,0,0,.75,0,.76.76,0,0,0,.25-.44.51.51,0,0,0-.08-.42s-1.42-2.1-1.83-2.72l3-3a.93.93,0,0,0,.23-.42.64.64,0,0,0-.1-.45A.52.52,0,0,0,1225,460.58Z"/><path class="cls-22" d="M1238.27,460.39a1,1,0,0,0-.26.46.7.7,0,0,0,.07.43l1.9,2.94-2.86,2.79a.78.78,0,0,0-.22.43.56.56,0,0,0,.08.44.49.49,0,0,0,.76,0l3.29-3.21a.74.74,0,0,0,.16-.86l-2.16-3.37A.5.5,0,0,0,1238.27,460.39Z"/><path class="cls-22" d="M1233.85,460.81l-6.3,6a.67.67,0,0,0-.14.87.49.49,0,0,0,.75,0l6.3-6a.72.72,0,0,0,.15-.88C1234.45,460.55,1234.11,460.56,1233.85,460.81Z"/><polygon class="cls-22" points="1252 371.47 1234.05 372.92 1234.74 369.11 1252.71 367.6 1252 371.47"/><polygon class="cls-22" points="1244.7 423.12 1224.79 423.94 1225.49 420.09 1245.42 419.2 1244.7 423.12"/><polygon class="cls-22" points="1231.96 458.18 1218.53 458.35 1219.23 454.46 1232.68 454.24 1231.96 458.18"/><polygon class="cls-23" points="1265.56 378.96 1236.94 381.09 1237.63 377.25 1266.28 375.03 1265.56 378.96"/><polygon class="cls-24" points="1253.42 431.62 1227.57 432.52 1228.28 428.64 1254.16 427.66 1253.42 431.62"/><polygon class="cls-23" points="1251.37 440.1 1226.06 440.81 1226.76 436.94 1252.1 436.14 1251.37 440.1"/><polygon class="cls-22" points="1238.01 449.18 1224.48 449.46 1225.19 445.57 1238.73 445.25 1238.01 449.18"/><polygon class="cls-22" points="1298.88 447.72 1241.23 449.11 1241.96 445.17 1299.66 443.61 1298.88 447.72"/><polygon class="cls-23" points="1296.35 438.72 1254.34 440.01 1255.08 436.05 1297.13 434.63 1296.35 438.72"/><polygon class="cls-23" points="1313.16 438.17 1299.58 438.62 1300.36 434.52 1313.95 434.04 1313.16 438.17"/><polygon class="cls-24" points="1348 428 1320.95 429.09 1321.74 424.94 1348.82 423.79 1348 428"/><polygon class="cls-24" points="1317.54 429.22 1256.18 431.52 1256.91 427.56 1318.33 425.09 1317.54 429.22"/><polygon class="cls-23" points="1284.93 377.54 1268.51 378.74 1269.24 374.81 1285.67 373.56 1284.93 377.54"/><polygon class="cls-22" points="1252.63 397.23 1233.79 398.39 1234.49 394.54 1253.35 393.32 1252.63 397.23"/><polygon class="cls-22" points="1286.29 395.15 1255.69 397.05 1256.41 393.13 1287.04 391.14 1286.29 395.15"/><polygon class="cls-23" points="1317.28 375.19 1287.89 377.32 1288.63 373.33 1318.05 371.13 1317.28 375.19"/><polygon class="cls-24" points="1267.89 387.63 1235.35 389.84 1236.05 385.99 1268.62 383.69 1267.89 387.63"/><polygon class="cls-24" points="1303.07 385.27 1271.25 387.4 1271.98 383.45 1303.83 381.24 1303.07 385.27"/><polygon class="cls-24" points="1328.46 383.58 1306.22 385.06 1306.99 381.02 1329.25 379.49 1328.46 383.58"/><polygon class="cls-23" points="1270.63 404.84 1232.23 406.94 1232.93 403.09 1271.37 400.87 1270.63 404.84"/><polygon class="cls-23" points="1294.06 403.55 1273.58 404.68 1274.32 400.7 1294.82 399.51 1294.06 403.55"/><polygon class="cls-22" points="1269.06 413.24 1230.74 415.1 1231.45 411.23 1269.81 409.25 1269.06 413.24"/><polygon class="cls-22" points="1307.55 411.33 1272.01 413.09 1272.75 409.1 1308.33 407.24 1307.55 411.33"/><polygon class="cls-23" points="1337.22 401.15 1297.47 403.36 1298.24 399.31 1338.02 397 1337.22 401.15"/><polygon class="cls-22" points="1264.71 370.44 1255.44 371.19 1256.15 367.31 1265.43 366.55 1264.71 370.44"/><path class="cls-6" d="M915.12,402.07l-1.55,5.2-25.05-10.53,1.15-4,31.71-11.67-1.6,5.35-22.55,8.18Z"/><path class="cls-6" d="M920.73,410.22l27-35.19,5.67-.59L926.07,410.6Z"/><path class="cls-6" d="M957.87,384.21l2-6.47L984.31,390l-2,6.44-32.14,13,1.93-6.3,23.11-9.74Z"/><path class="cls-6" d="M1105.85,541.23a3.11,3.11,0,0,1-.43,0,2.54,2.54,0,0,1-2.07-2.94l.25-1.5a2.57,2.57,0,0,1,2.93-2.08,2.54,2.54,0,0,1,2.07,2.94l-.25,1.5A2.53,2.53,0,0,1,1105.85,541.23Z"/><path class="cls-6" d="M1107.79,529.71a2,2,0,0,1-.42,0,2.52,2.52,0,0,1-2.08-2.92l.51-3a2.54,2.54,0,1,1,5,.85l-.51,3A2.54,2.54,0,0,1,1107.79,529.71ZM762,523.19a2,2,0,0,1-.34,0,2.53,2.53,0,0,1-2.18-2.85l.4-3a2.54,2.54,0,0,1,5,.67l-.4,3A2.55,2.55,0,0,1,762,523.19Zm348-6.51-.42,0a2.53,2.53,0,0,1-2.08-2.93l.51-3a2.47,2.47,0,0,1,2.92-2.08,2.53,2.53,0,0,1,2.08,2.93l-.51,3A2.53,2.53,0,0,1,1110,516.68ZM763.76,510.1l-.33,0a2.54,2.54,0,0,1-2.19-2.85l.41-3a2.49,2.49,0,0,1,2.86-2.18,2.54,2.54,0,0,1,2.18,2.85l-.41,3A2.55,2.55,0,0,1,763.76,510.1Zm348.43-6.44-.41,0a2.54,2.54,0,0,1-2.09-2.93l.51-3a2.54,2.54,0,1,1,5,.84l-.51,3A2.52,2.52,0,0,1,1112.19,503.66ZM765.51,497a1.94,1.94,0,0,1-.34,0,2.54,2.54,0,0,1-2.18-2.85l.41-3a2.48,2.48,0,0,1,2.85-2.17,2.54,2.54,0,0,1,2.19,2.85l-.41,3A2.55,2.55,0,0,1,765.51,497Zm348.89-6.36a2,2,0,0,1-.42,0,2.52,2.52,0,0,1-2.08-2.92l.5-3a2.54,2.54,0,1,1,5,.84l-.5,3A2.54,2.54,0,0,1,1114.4,490.64Zm-347.14-6.73a1.94,1.94,0,0,1-.34,0,2.54,2.54,0,0,1-2.18-2.85l.4-3a2.54,2.54,0,0,1,5,.68l-.41,3A2.53,2.53,0,0,1,767.26,483.91Zm349.33-6.29a2.09,2.09,0,0,1-.43,0,2.52,2.52,0,0,1-2.07-2.93l.52-3a2.5,2.5,0,0,1,2.92-2.07,2.53,2.53,0,0,1,2.07,2.93l-.51,3A2.54,2.54,0,0,1,1116.59,477.62Zm-347.36-6.76a2.39,2.39,0,0,1-.75-.11,2.54,2.54,0,0,1-1.67-3.19,19.6,19.6,0,0,1,1.3-3.21,2.54,2.54,0,1,1,4.52,2.3,17.87,17.87,0,0,0-1,2.43A2.53,2.53,0,0,1,769.23,470.86Zm347.94-6.31a2.54,2.54,0,0,1-2.45-1.87,13.8,13.8,0,0,0-.9-2.45,2.54,2.54,0,1,1,4.6-2.15,19.68,19.68,0,0,1,1.2,3.27,2.53,2.53,0,0,1-1.78,3.11A2.57,2.57,0,0,1,1117.17,464.55Zm-339.93-3.8A2.54,2.54,0,0,1,776,456a19.78,19.78,0,0,1,3.15-1.49,2.54,2.54,0,0,1,1.75,4.77,14.83,14.83,0,0,0-2.35,1.1A2.54,2.54,0,0,1,777.24,460.75ZM790,458.27a2.54,2.54,0,0,1,0-5.08l3-.06h.05a2.54,2.54,0,0,1,0,5.08l-3,.06Zm13.21-.28a2.54,2.54,0,0,1-.05-5.08l3-.07h0a2.54,2.54,0,0,1,.05,5.08l-3,.07Zm13.2-.29a2.54,2.54,0,0,1,0-5.08l3.06-.07h0a2.54,2.54,0,0,1,0,5.08l-3.06.07Zm13.2-.28a2.54,2.54,0,0,1-.06-5.08l3.06-.07a2.64,2.64,0,0,1,2.6,2.48,2.55,2.55,0,0,1-2.48,2.6l-3.06.07Zm13.22-.29a2.54,2.54,0,0,1-.06-5.08l3-.07a2.54,2.54,0,1,1,.12,5.08l-3,.07Zm13.2-.29a2.54,2.54,0,0,1,0-5.08l3-.06h.05a2.54,2.54,0,0,1,0,5.08l-3,.06Zm13.21-.29a2.54,2.54,0,0,1,0-5.08l3-.06h0a2.54,2.54,0,0,1,.05,5.08l-3,.06Zm13.2-.29a2.54,2.54,0,0,1-.05-5.07l3.05-.07h0a2.54,2.54,0,0,1,0,5.08l-3,.06Zm13.2-.28a2.54,2.54,0,0,1,0-5.08l3-.07h.05a2.54,2.54,0,0,1,0,5.08l-3,.07Zm13.21-.29a2.54,2.54,0,0,1,0-5.08l3-.06h0a2.54,2.54,0,0,1,.05,5.07l-3,.07Zm13.2-.28a2.54,2.54,0,0,1-.06-5.08l3-.07a2.66,2.66,0,0,1,2.6,2.48,2.55,2.55,0,0,1-2.48,2.6l-3,.07Zm13.21-.29a2.54,2.54,0,0,1-.06-5.08l3-.07a2.54,2.54,0,1,1,.12,5.08l-3,.07Zm13.2-.29a2.54,2.54,0,0,1-.06-5.08l3.05-.07a2.46,2.46,0,0,1,2.59,2.48,2.54,2.54,0,0,1-2.48,2.6l-3,.07Zm13.2-.29a2.54,2.54,0,0,1,0-5.08l3-.06h.05a2.54,2.54,0,0,1,0,5.08l-3,.06Zm13.21-.28a2.54,2.54,0,0,1,0-5.08l3-.07h0a2.54,2.54,0,0,1,.05,5.08l-3,.07Zm134.6-.06a2.52,2.52,0,0,1-1.35-.39,15.12,15.12,0,0,0-2.3-1.18,2.54,2.54,0,1,1,1.88-4.71,19.43,19.43,0,0,1,3.12,1.58,2.55,2.55,0,0,1-1.35,4.7ZM988.09,454a2.54,2.54,0,0,1-.05-5.08l3.05-.07h0a2.54,2.54,0,0,1,.05,5.08l-3.05.07Zm13.21-.29a2.54,2.54,0,0,1,0-5.08l3-.06h.05a2.54,2.54,0,0,1,0,5.08l-3.06.06Zm13.2-.28a2.54,2.54,0,0,1-.06-5.08l3.06-.07a2.44,2.44,0,0,1,2.59,2.48,2.55,2.55,0,0,1-2.48,2.6l-3.05.07Zm13.2-.29a2.54,2.54,0,0,1-.06-5.08l3.06-.07a2.38,2.38,0,0,1,2.6,2.48,2.54,2.54,0,0,1-2.48,2.6l-3.06.07Zm13.22-.29a2.54,2.54,0,0,1-.06-5.08l3-.07c1.41.24,2.57,1.09,2.6,2.48a2.54,2.54,0,0,1-2.48,2.6l-3,.07Zm13.2-.29a2.54,2.54,0,0,1,0-5.07l3-.07h.05a2.54,2.54,0,0,1,0,5.08l-3,.06Zm13.2-.28a2.54,2.54,0,0,1,0-5.08l3-.07h0a2.54,2.54,0,0,1,.05,5.08l-3.05.07Zm13.21-.29a2.54,2.54,0,0,1,0-5.08l3-.06h0a2.54,2.54,0,0,1,0,5.07l-3,.07Zm13.2-.29a2.54,2.54,0,0,1,0-5.08l3-.06h0a2.54,2.54,0,0,1,0,5.08l-3,.06Z"/><path class="cls-6" d="M760.46,534.88a1.83,1.83,0,0,1-.33,0,2.54,2.54,0,0,1-2.19-2.85l.2-1.51a2.54,2.54,0,0,1,5,.67l-.2,1.51A2.54,2.54,0,0,1,760.46,534.88Z"/><polygon class="cls-6" points="1253.81 786.53 934.48 726.96 955.93 536.84 1289.55 536.84 1253.81 786.53"/><polygon class="cls-25" points="1285.13 567.72 953.28 560.35 955.93 536.84 1289.55 536.84 1285.13 567.72"/><polygon class="cls-5" points="975.8 556.38 960.01 556.09 961.63 541.89 977.46 541.96 975.8 556.38"/><polygon class="cls-5" points="1208.72 560.58 1006.91 556.94 1008.67 542.11 1211.13 543.06 1208.72 560.58"/><polygon points="970.19 552.79 965.51 548.98 971.05 545.28 970.19 552.79"/><polygon class="cls-5" points="982.59 556.5 998.4 556.78 1000.13 542.07 984.28 541.99 982.59 556.5"/><polygon points="989.03 553.07 994.59 549.31 989.92 545.43 989.03 553.07"/><path class="cls-26" d="M1236.27,551.89c-.59,4.26-4.09,7.64-7.86,7.57s-6.34-3.51-5.75-7.73,4.11-7.59,7.88-7.57S1236.86,547.64,1236.27,551.89Z"/><path class="cls-27" d="M1257.5,552.12c-.61,4.33-4.14,7.77-7.9,7.7s-6.3-3.56-5.7-7.85,4.12-7.72,7.89-7.7S1258.11,547.81,1257.5,552.12Z"/><path class="cls-28" d="M1278.72,552.36c-.63,4.4-4.16,7.89-7.9,7.82s-6.32-3.62-5.71-8,4.17-7.84,8-7.82S1279.34,548,1278.72,552.36Z"/><polygon class="cls-29" points="973.4 722.21 969.8 721.58 987.22 572.56 990.95 572.68 973.4 722.21"/><polygon class="cls-29" points="977.24 582.55 971.05 582.29 971.7 576.62 977.9 576.85 977.24 582.55"/><polygon class="cls-29" points="975.79 595.07 969.62 594.74 970.27 589.06 976.45 589.36 975.79 595.07"/><polygon class="cls-29" points="974.33 607.6 968.18 607.19 968.84 601.5 975 601.87 974.33 607.6"/><polygon class="cls-29" points="972.88 620.12 966.75 619.64 967.4 613.95 973.55 614.39 972.88 620.12"/><polygon class="cls-29" points="971.43 632.62 965.32 632.07 965.97 626.4 972.1 626.92 971.43 632.62"/><polygon class="cls-29" points="969.98 645.14 963.88 644.52 964.54 638.84 970.64 639.43 969.98 645.14"/><polygon class="cls-29" points="968.53 657.66 962.45 656.97 963.1 651.28 969.19 651.94 968.53 657.66"/><polygon class="cls-29" points="967.08 670.17 961.01 669.4 961.67 663.73 967.74 664.46 967.08 670.17"/><polygon class="cls-29" points="965.63 682.69 959.58 681.85 960.24 676.18 966.29 676.98 965.63 682.69"/><polygon class="cls-29" points="964.18 695.2 958.15 694.3 958.8 688.61 964.84 689.48 964.18 695.2"/><polygon class="cls-29" points="962.73 707.71 956.72 706.73 957.37 701.06 963.39 702.01 962.73 707.71"/><path class="cls-5" d="M1005.68,576.28l-5,4.37a.79.79,0,0,0-.14,1.13l3.84,4.42a.89.89,0,0,0,1.22.07.85.85,0,0,0,.34-.58.73.73,0,0,0-.19-.59l-3.32-3.84,4.41-3.81a.91.91,0,0,0,.31-.55.81.81,0,0,0-.22-.62A.91.91,0,0,0,1005.68,576.28Z"/><path class="cls-5" d="M1027,577a1,1,0,0,0-.35.61.83.83,0,0,0,.16.58l3.45,4.2L1026,586a.9.9,0,0,0-.31.57.81.81,0,0,0,.19.62.91.91,0,0,0,1.23,0l4.87-4.16a.84.84,0,0,0,.14-1.16l-3.93-4.82A.88.88,0,0,0,1027,577Z"/><path class="cls-5" d="M1019.92,577.22l-9.34,7.8a.78.78,0,0,0-.12,1.16.88.88,0,0,0,1.22,0l9.35-7.79a.82.82,0,0,0,.12-1.17A.89.89,0,0,0,1019.92,577.22Z"/><path class="cls-5" d="M989.15,715.17l-4.89,3.8a.81.81,0,0,0-.13,1.14l3.71,5a.87.87,0,0,0,1.17.24.75.75,0,0,0,.34-.55.77.77,0,0,0-.18-.61L986,719.83l4.3-3.32a.81.81,0,0,0,.29-.53,1,1,0,0,0-.2-.66A.9.9,0,0,0,989.15,715.17Z"/><path class="cls-5" d="M1009.82,718.55a.9.9,0,0,0-.34.58,1,1,0,0,0,.15.61l3.33,4.7-4.12,3.13a.77.77,0,0,0-.29.54.83.83,0,0,0,.18.65.85.85,0,0,0,1.19.18l4.74-3.61a.85.85,0,0,0,.14-1.17L1011,718.8A.88.88,0,0,0,1009.82,718.55Z"/><path class="cls-5" d="M1003,717.91l-9.09,6.74a.8.8,0,0,0-.12,1.17.87.87,0,0,0,1.19.2l9.09-6.74a.85.85,0,0,0,.13-1.19A.88.88,0,0,0,1003,717.91Z"/><polygon class="cls-30" points="1020.48 595.9 992.34 594.42 992.96 589.21 1021.12 590.55 1020.48 595.9"/><polygon class="cls-31" points="1015.31 667.52 984.16 663.85 984.78 658.63 1015.96 662.15 1015.31 667.52"/><polygon class="cls-31" points="999.68 713.7 978.7 710.28 979.31 705.05 1000.32 708.36 999.68 713.7"/><polygon class="cls-32" points="1042.76 609.32 997.91 606.47 998.54 601.21 1043.44 603.84 1042.76 609.32"/><polygon class="cls-33" points="1030.03 681.76 989.61 676.53 990.23 671.28 1030.7 676.3 1030.03 681.76"/><polygon class="cls-34" points="1027.84 693.3 988.27 687.77 988.9 682.52 1028.51 687.87 1027.84 693.3"/><polygon class="cls-32" points="1008.03 702.65 986.89 699.46 987.51 694.2 1008.67 697.29 1008.03 702.65"/><polygon class="cls-33" points="1103.07 717.02 1013.06 703.41 1013.72 698.03 1103.83 711.19 1103.07 717.02"/><polygon class="cls-33" points="1098.1 703.13 1032.48 693.95 1033.16 688.49 1098.85 697.35 1098.1 703.13"/><polygon class="cls-30" points="1124.34 706.81 1103.13 703.84 1103.89 698.03 1125.12 700.9 1124.34 706.81"/><polygon class="cls-34" points="1177.77 700.84 1135.52 695.38 1136.32 689.42 1178.61 694.67 1177.77 700.84"/><polygon class="cls-32" points="1130.2 694.7 1034.33 682.31 1035.01 676.84 1130.99 688.76 1130.2 694.7"/><polygon class="cls-33" points="1073.12 611.24 1047.39 609.61 1048.08 604.11 1073.83 605.62 1073.12 611.24"/><polygon class="cls-33" points="1024.6 632.63 995.11 630.12 995.73 624.86 1025.26 627.24 1024.6 632.63"/><polygon class="cls-32" points="1077.31 637.11 1029.4 633.05 1030.07 627.63 1078.02 631.44 1077.31 637.11"/><polygon class="cls-34" points="1123.85 614.46 1077.77 611.54 1078.48 605.89 1124.62 608.59 1123.85 614.46"/><polygon class="cls-34" points="1047.46 622.24 996.49 618.44 997.12 613.18 1048.15 616.74 1047.46 622.24"/><polygon class="cls-30" points="1102.59 626.34 1052.73 622.63 1053.42 617.1 1103.33 620.58 1102.59 626.34"/><polygon class="cls-32" points="1142.38 629.31 1107.53 626.71 1108.28 620.92 1143.17 623.35 1142.38 629.31"/><polygon class="cls-34" points="1053.82 647.57 993.73 641.79 994.35 636.53 1054.52 642.03 1053.82 647.57"/><polygon class="cls-33" points="1090.49 651.11 1058.44 648.02 1059.14 642.45 1091.23 645.38 1090.49 651.11"/><polygon class="cls-32" points="1052.36 659.29 992.41 652.89 993.03 647.63 1053.05 653.74 1052.36 659.29"/><polygon class="cls-34" points="1112.56 665.72 1056.96 659.78 1057.66 654.21 1113.33 659.87 1112.56 665.72"/><polygon class="cls-32" points="1158.04 657.61 1095.84 651.62 1096.58 645.87 1158.85 651.56 1158.04 657.61"/><polygon class="cls-32" points="1040.4 596.95 1025.88 596.18 1026.53 590.81 1041.07 591.51 1040.4 596.95"/><path class="cls-6" d="M1138.14,540.38a2.52,2.52,0,0,1-2.5-3l.27-1.5a2.51,2.51,0,0,1,3-2,2.54,2.54,0,0,1,2,3l-.27,1.5A2.55,2.55,0,0,1,1138.14,540.38Z"/><path class="cls-6" d="M1140.2,529.14a2.38,2.38,0,0,1-.46,0,2.53,2.53,0,0,1-2-3l.54-2.92a2.54,2.54,0,1,1,5,.91l-.54,2.92A2.54,2.54,0,0,1,1140.2,529.14Zm2.33-12.66a2.38,2.38,0,0,1-.46,0,2.55,2.55,0,0,1-2-3l.54-2.92a2.54,2.54,0,0,1,5,.92l-.54,2.92A2.55,2.55,0,0,1,1142.53,516.48Zm2.32-12.66a3.27,3.27,0,0,1-.45,0,2.56,2.56,0,0,1-2.05-3l.54-2.92a2.57,2.57,0,0,1,2.95-2,2.54,2.54,0,0,1,2.05,2.95l-.54,2.92A2.55,2.55,0,0,1,1144.85,503.82Zm2.33-12.67a2.28,2.28,0,0,1-.45,0,2.55,2.55,0,0,1-2-2.95l.54-2.93a2.54,2.54,0,0,1,5,.91l-.54,2.93A2.53,2.53,0,0,1,1147.18,491.15Zm2.32-12.66a3.58,3.58,0,0,1-.45,0,2.56,2.56,0,0,1-2-3l.54-2.92a2.58,2.58,0,0,1,3-2.05,2.55,2.55,0,0,1,2,3l-.54,2.92A2.54,2.54,0,0,1,1149.5,478.49Zm2.34-12.67a2.38,2.38,0,0,1-.46,0,2.53,2.53,0,0,1-2-2.95l.53-2.92a2.54,2.54,0,1,1,5,.91l-.53,2.92A2.55,2.55,0,0,1,1151.84,465.82Zm2.32-12.66a3.57,3.57,0,0,1-.46,0,2.54,2.54,0,0,1-2-3l.53-2.92a2.6,2.6,0,0,1,3-2,2.54,2.54,0,0,1,2,2.95l-.53,2.93A2.55,2.55,0,0,1,1154.16,453.16Zm2.33-12.66a3.57,3.57,0,0,1-.46,0,2.55,2.55,0,0,1-2-3l.53-2.92a2.58,2.58,0,0,1,3-2,2.53,2.53,0,0,1,2,2.95l-.53,2.92A2.55,2.55,0,0,1,1156.49,440.5Zm3.29-12.39a2.49,2.49,0,0,1-1.14-.28,2.54,2.54,0,0,1-1.13-3.4,24.83,24.83,0,0,1,1.69-2.87,2.54,2.54,0,1,1,4.18,2.89,17.62,17.62,0,0,0-1.33,2.26A2.56,2.56,0,0,1,1159.78,428.11Zm8.47-9.51a2.54,2.54,0,0,1-1.39-4.66,25.44,25.44,0,0,1,2.83-1.64,2.54,2.54,0,1,1,2.26,4.54,22.19,22.19,0,0,0-2.3,1.34A2.52,2.52,0,0,1,1168.25,418.6Zm12.06-4.06a2.54,2.54,0,0,1-.18-5.07l3-.22a2.54,2.54,0,0,1,.36,5.07l-3,.21Zm12.84-.93a2.54,2.54,0,0,1-.18-5.08l3-.22a2.44,2.44,0,0,1,2.72,2.35,2.53,2.53,0,0,1-2.34,2.72l-3,.22Z"/><path class="cls-6" d="M1206,412.67a2.54,2.54,0,0,1-.18-5.07l1.53-.11a2.46,2.46,0,0,1,2.71,2.35,2.54,2.54,0,0,1-2.35,2.72l-1.53.1Z"/><path class="cls-35" d="M1131.11,365.42c-4.35,23.75-27.17,43-50.91,43s-39.5-19.27-35.15-43,27.15-43,50.92-43S1135.46,341.65,1131.11,365.42Z"/><path class="cls-5" d="M1100.68,352.05l-17.88,18.38-4.66-6c-1.48-1.91-4.49-2-6.73-.14s-2.86,4.85-1.38,6.75l7.74,9.95a4,4,0,0,0,3.4,1.47,5.89,5.89,0,0,0,3.85-1.81L1107.09,358c2-2.08,2.21-5.08.44-6.71S1102.69,350,1100.68,352.05Z"/><path class="cls-4" d="M665,396.74,821.26,390s21.27-32.26,4.52-50.26c-17.28-16.78-39.43-1.07-39.43-1.07s-6.74-40.49-47.61-29.6c-40.21,10.7-38.58,43-38.46,50.92,0,0-23-3.14-32.45,10.7A26.86,26.86,0,0,0,665,396.74Z"/><g class="cls-36"><path class="cls-37" d="M1048.82,178a94.46,94.46,0,1,1-94.47-94.46A94.46,94.46,0,0,1,1048.82,178Z"/><path class="cls-38" d="M1029,178a74.62,74.62,0,1,1-74.63-74.62A74.62,74.62,0,0,1,1029,178Z"/><path class="cls-39" d="M1021,178a66.6,66.6,0,1,1-66.61-66.59A66.59,66.59,0,0,1,1021,178Z"/><g class="cls-40"><path class="cls-41" d="M928.21,98.38a6.76,6.76,0,0,1-4.65,7.48,52.16,52.16,0,0,0-17.7,10.21,6.78,6.78,0,0,1-8.81.29h0c-2.51-2.15-2.27-6.51.91-9.3a64.13,64.13,0,0,1,21.76-12.54c4-1.36,7.89.63,8.49,3.86Z"/></g><path class="cls-37" d="M1002.37,150.84l-49.53,24.74a3,3,0,0,0,2.68,5.44l49.54-24.75a3,3,0,1,0-2.69-5.43Z"/><path class="cls-37" d="M951.52,141.42l-.2,34.65a3,3,0,1,0,6.06,0l.2-34.65a3,3,0,1,0-6.06,0Z"/><path class="cls-38" d="M949.72,168.69a10.39,10.39,0,1,0,13.93,4.69A10.42,10.42,0,0,0,949.72,168.69Z"/><path class="cls-37" d="M951.87,173a5.57,5.57,0,1,1-2.51,7.47A5.6,5.6,0,0,1,951.87,173Z"/></g><g class="cls-42"><path class="cls-37" d="M694,240.05c0-.31.06-.61.06-.91,0-67.22-63.1-121.71-140.92-121.71s-140.9,54.49-140.9,121.71c0,.3,0,.6,0,.91Z"/><path class="cls-37" d="M520.38,244.76V245A32.81,32.81,0,1,0,586,245c0-.07,0-.15,0-.25Z"/><path class="cls-37" d="M555.82,45.37V128h-5.26V47.15l2.84-.94A21.07,21.07,0,0,1,555.82,45.37Z"/></g></g></g></g></svg>