<?xml version="1.0" encoding="iso-8859-1"?>
<!-- Generator: Adobe Illustrator 19.0.0, SVG Export Plug-In . SVG Version: 6.00 Build 0)  -->
<svg version="1.1" id="Layer_1" xmlns="http://www.w3.org/2000/svg" xmlns:xlink="http://www.w3.org/1999/xlink" x="0px" y="0px"
	 viewBox="0 0 512 512" style="enable-background:new 0 0 512 512;" xml:space="preserve">
<rect x="15.673" y="165.731" style="fill:#C9E8FA;" width="480.653" height="263.304"/>
<path style="fill:#67BFFF;" d="M0,150.058v294.651h512V150.058H0z M480.653,413.362H31.347V181.405h449.306V413.362z"/>
<rect x="256" y="165.731" style="fill:#B6E0F7;" width="240.327" height="263.304"/>
<polygon style="fill:#0088FF;" points="512,150.058 512,444.709 256,444.709 256,413.362 480.653,413.362 480.653,181.405 
	256,181.405 256,150.058 "/>
<rect x="256" y="374.617" style="fill:#67BFFF;" width="256" height="70.092"/>
<rect x="221.78" y="429.035" style="fill:#57555C;" width="68.441" height="66.769"/>
<rect x="158.824" y="480.131" style="fill:#AEADB3;" width="194.351" height="31.347"/>
<rect x="256" y="429.035" style="fill:#3C3A41;" width="34.22" height="66.769"/>
<rect x="256" y="480.131" style="fill:#8B8892;" width="97.176" height="31.347"/>
<g>
	<polygon style="fill:#FD7052;" points="327.173,126.945 327.173,381.492 184.827,381.492 184.827,126.945 185.015,126.61 
		256.005,0.522 326.985,126.61 	"/>
	<polygon style="fill:#FD7052;" points="327.168,126.945 327.168,381.492 184.832,381.492 184.832,126.945 185.01,126.61 256,0.522 
		326.99,126.61 	"/>
</g>
<polygon style="fill:#FFDBA8;" points="326.99,126.61 185.01,126.61 234.381,38.922 256,0.522 277.619,38.922 "/>
<polygon style="fill:#57555C;" points="277.619,38.922 234.381,38.922 256,0.522 "/>
<polygon style="fill:#FF4F18;" points="327.168,126.945 327.168,381.492 256,381.492 256,0.522 326.99,126.61 "/>
<polygon style="fill:#FFC473;" points="326.99,126.61 256,126.61 256,0.522 277.619,38.922 "/>
<polygon style="fill:#3C3A41;" points="277.619,38.922 256,38.922 256,0.522 "/>
<rect y="374.617" style="fill:#AEADB3;" width="512" height="70.092"/>
<rect x="256" y="374.617" style="fill:#8B8892;" width="256" height="70.092"/>
<rect x="245.154" y="401.241" style="fill:#F4F4F4;" width="21.682" height="21.682"/>
<rect x="256" y="401.241" style="fill:#AEADB3;" width="10.841" height="21.682"/>
<g>
</g>
<g>
</g>
<g>
</g>
<g>
</g>
<g>
</g>
<g>
</g>
<g>
</g>
<g>
</g>
<g>
</g>
<g>
</g>
<g>
</g>
<g>
</g>
<g>
</g>
<g>
</g>
<g>
</g>
</svg>
