<?xml version="1.0" encoding="iso-8859-1"?>
<!-- Generator: Adobe Illustrator 19.0.0, SVG Export Plug-In . SVG Version: 6.00 Build 0)  -->
<svg version="1.1" id="Layer_1" xmlns="http://www.w3.org/2000/svg" xmlns:xlink="http://www.w3.org/1999/xlink" x="0px" y="0px"
	 viewBox="0 0 392.776 392.776" style="enable-background:new 0 0 392.776 392.776;" xml:space="preserve">
<g>
	<polygon style="fill:#56ACE0;" points="21.907,199.935 21.907,355.604 116.55,277.188 	"/>
	<polygon style="fill:#56ACE0;" points="370.869,199.935 276.226,277.188 370.869,355.604 	"/>
	<path style="fill:#56ACE0;" d="M217.269,325.35c-11.96,9.503-28.509,10.214-41.632,0l-41.826-34.133l-96.194,79.709H355.16
		l-96.194-79.644L217.269,325.35z"/>
</g>
<g>
	<path style="fill:#FFC10D;" d="M167.879,42.004h57.018l-21.463-17.519c-4.073-3.297-9.956-3.297-14.093,0L167.879,42.004z"/>
	<path style="fill:#FFC10D;" d="M366.796,157.786l-31.741-25.988v69.107l31.741-25.988
		C372.162,170.844,372.097,161.794,366.796,157.786z"/>
	<path style="fill:#FFC10D;" d="M57.786,201.034v-69.107l-31.741,25.859c-5.042,3.943-5.818,12.606,0,17.261L57.786,201.034z"/>
</g>
<path style="fill:#FFFFFF;" d="M79.572,63.855v155.022l109.834,89.665c4.073,3.297,9.956,3.297,14.093,0l109.834-89.665V63.855
	H79.572z"/>
<path style="fill:#FFC10D;" d="M176.541,186.295c0,6.012-4.848,10.925-10.925,10.925h-3.232l34.004,39.111l34.004-39.111h-3.232
	c-6.012,0-10.925-4.848-10.925-10.925v-63.289h-39.693L176.541,186.295L176.541,186.295z"/>
<g>
	<path style="fill:#194F82;" d="M392.655,166.513c0-9.891-4.396-19.329-12.154-25.665l-45.511-37.172V52.8
		c0-6.012-4.849-10.925-10.925-10.925H259.16c-0.388-0.388-41.891-34.457-41.891-34.457c-12.024-9.891-29.608-9.891-41.632,0
		l-42.214,34.457H68.646c-6.012,0-10.925,4.848-10.925,10.925v50.877l-45.576,37.236c-7.628,6.335-12.024,15.774-12.024,25.665
		v194.651c0,17.39,14.158,31.547,31.418,31.547h329.568c17.39,0,31.547-14.158,31.547-31.547V166.513
		C392.655,166.642,392.655,166.642,392.655,166.513z M21.907,199.935l94.642,77.253l-94.642,78.416V199.935z M217.269,325.35
		l41.826-34.133l96.129,79.644H37.616l96.194-79.644l41.826,34.133C188.76,335.628,205.244,334.853,217.269,325.35z
		 M276.226,277.188l94.642-77.253v155.733L276.226,277.188z M366.796,175.046l-31.741,25.988v-69.107l31.741,25.988
		C372.097,161.794,372.162,170.844,366.796,175.046z M189.341,24.42c4.073-3.297,9.956-3.297,14.093,0l21.463,17.519h-57.018
		L189.341,24.42z M313.204,63.855v155.022l-109.77,89.6c-4.073,3.297-9.956,3.297-14.093,0l-109.77-89.6v-76.994h19.782
		c6.012,0,10.925-4.848,10.925-10.925c0-6.012-4.848-10.925-10.925-10.925H79.572v-19.459h40.404
		c6.012,0,10.925-4.848,10.925-10.925c0-6.012-4.848-10.925-10.925-10.925H79.572V63.725h233.632V63.855z M25.98,157.786
		l31.741-25.988v69.107L25.98,174.917C20.226,170.457,21.002,161.794,25.98,157.786z"/>
	<path style="fill:#194F82;" d="M130.255,193.535l57.859,66.586c4.331,5.042,12.154,5.042,16.485,0l57.859-66.586
		c6.077-7.046,1.164-18.101-8.275-18.101h-16.226v-63.289c0-6.012-4.848-10.925-10.925-10.925h-61.479
		c-6.012,0-10.925,4.848-10.925,10.925v63.289H138.4C129.156,175.434,124.113,186.424,130.255,193.535z M165.616,197.22
		c6.012,0,10.925-4.848,10.925-10.925v-63.289h39.693v63.289c0,6.012,4.848,10.925,10.925,10.925h3.232l-34.004,39.111
		l-34.004-39.111H165.616z"/>
</g>
<g>
</g>
<g>
</g>
<g>
</g>
<g>
</g>
<g>
</g>
<g>
</g>
<g>
</g>
<g>
</g>
<g>
</g>
<g>
</g>
<g>
</g>
<g>
</g>
<g>
</g>
<g>
</g>
<g>
</g>
</svg>
